<svg width="440" height="221" viewBox="0 0 440 221" fill="none" xmlns="http://www.w3.org/2000/svg">
<g filter="url(#filter0_d_13_4469)">
<rect x="4" width="432" height="213" rx="5" fill="white" fill-opacity="0.1" shape-rendering="crispEdges"/>
</g>
<path d="M28.6406 63.5703L25.5469 73H23.0547L27.2812 61.625H28.8672L28.6406 63.5703ZM31.2109 73L28.1094 63.5703L27.8594 61.625H29.4609L33.7109 73H31.2109ZM31.0703 68.7656V70.6016H25.0625V68.7656H31.0703ZM35.8359 61.625H37.8203L40.7422 69.9766L43.6641 61.625H45.6484L41.5391 73H39.9453L35.8359 61.625ZM34.7656 61.625H36.7422L37.1016 69.7656V73H34.7656V61.625ZM44.7422 61.625H46.7266V73H44.3828V69.7656L44.7422 61.625ZM53.5469 63.5703L50.4531 73H47.9609L52.1875 61.625H53.7734L53.5469 63.5703ZM56.1172 73L53.0156 63.5703L52.7656 61.625H54.3672L58.6172 73H56.1172ZM55.9766 68.7656V70.6016H49.9688V68.7656H55.9766ZM59.6719 61.625H63.9141C64.7839 61.625 65.5312 61.7552 66.1562 62.0156C66.7865 62.276 67.2708 62.6615 67.6094 63.1719C67.9479 63.6823 68.1172 64.3099 68.1172 65.0547C68.1172 65.6641 68.013 66.1875 67.8047 66.625C67.6016 67.0573 67.3125 67.4193 66.9375 67.7109C66.5677 67.9974 66.1328 68.2266 65.6328 68.3984L64.8906 68.7891H61.2031L61.1875 66.9609H63.9297C64.3411 66.9609 64.6823 66.888 64.9531 66.7422C65.224 66.5964 65.4271 66.3932 65.5625 66.1328C65.7031 65.8724 65.7734 65.5703 65.7734 65.2266C65.7734 64.862 65.7057 64.5469 65.5703 64.2812C65.4349 64.0156 65.2292 63.8125 64.9531 63.6719C64.6771 63.5312 64.3307 63.4609 63.9141 63.4609H62.0156V73H59.6719V61.625ZM66.0312 73L63.4375 67.9297L65.9141 67.9141L68.5391 72.8906V73H66.0312ZM77.5547 71.1719V73H71.5V71.1719H77.5547ZM72.2656 61.625V73H69.9219V61.625H72.2656ZM76.7656 66.2578V68.0391H71.5V66.2578H76.7656ZM77.5469 61.625V63.4609H71.5V61.625H77.5469ZM86.2344 71.1719V73H80.5078V71.1719H86.2344ZM81.2656 61.625V73H78.9219V61.625H81.2656ZM94.8906 71.1719V73H89.1641V71.1719H94.8906ZM89.9219 61.625V73H87.5781V61.625H89.9219ZM107.641 66.3125V68.2812C107.641 69.1354 107.549 69.8724 107.367 70.4922C107.185 71.1068 106.922 71.612 106.578 72.0078C106.24 72.3984 105.836 72.6875 105.367 72.875C104.898 73.0625 104.378 73.1562 103.805 73.1562C103.346 73.1562 102.919 73.099 102.523 72.9844C102.128 72.8646 101.771 72.6797 101.453 72.4297C101.141 72.1797 100.87 71.8646 100.641 71.4844C100.417 71.099 100.245 70.6406 100.125 70.1094C100.005 69.5781 99.9453 68.9688 99.9453 68.2812V66.3125C99.9453 65.4583 100.036 64.7266 100.219 64.1172C100.406 63.5026 100.669 63 101.008 62.6094C101.352 62.2188 101.758 61.9323 102.227 61.75C102.695 61.5625 103.216 61.4688 103.789 61.4688C104.247 61.4688 104.672 61.5286 105.062 61.6484C105.458 61.763 105.815 61.9427 106.133 62.1875C106.451 62.4323 106.721 62.7474 106.945 63.1328C107.169 63.513 107.341 63.9688 107.461 64.5C107.581 65.026 107.641 65.6302 107.641 66.3125ZM105.383 68.5781V66.0078C105.383 65.5964 105.359 65.237 105.312 64.9297C105.271 64.6224 105.206 64.362 105.117 64.1484C105.029 63.9297 104.919 63.7526 104.789 63.6172C104.659 63.4818 104.51 63.3828 104.344 63.3203C104.177 63.2578 103.992 63.2266 103.789 63.2266C103.534 63.2266 103.307 63.276 103.109 63.375C102.917 63.474 102.753 63.6328 102.617 63.8516C102.482 64.0651 102.378 64.3516 102.305 64.7109C102.237 65.0651 102.203 65.4974 102.203 66.0078V68.5781C102.203 68.9896 102.224 69.3516 102.266 69.6641C102.312 69.9766 102.38 70.2448 102.469 70.4688C102.562 70.6875 102.672 70.8672 102.797 71.0078C102.927 71.1432 103.076 71.2422 103.242 71.3047C103.414 71.3672 103.602 71.3984 103.805 71.3984C104.055 71.3984 104.276 71.349 104.469 71.25C104.667 71.1458 104.833 70.9844 104.969 70.7656C105.109 70.5417 105.214 70.25 105.281 69.8906C105.349 69.5312 105.383 69.0938 105.383 68.5781ZM109.375 71.9141C109.375 71.5807 109.49 71.3021 109.719 71.0781C109.953 70.8542 110.263 70.7422 110.648 70.7422C111.034 70.7422 111.341 70.8542 111.57 71.0781C111.805 71.3021 111.922 71.5807 111.922 71.9141C111.922 72.2474 111.805 72.526 111.57 72.75C111.341 72.974 111.034 73.0859 110.648 73.0859C110.263 73.0859 109.953 72.974 109.719 72.75C109.49 72.526 109.375 72.2474 109.375 71.9141ZM121.469 66.3125V68.2812C121.469 69.1354 121.378 69.8724 121.195 70.4922C121.013 71.1068 120.75 71.612 120.406 72.0078C120.068 72.3984 119.664 72.6875 119.195 72.875C118.727 73.0625 118.206 73.1562 117.633 73.1562C117.174 73.1562 116.747 73.099 116.352 72.9844C115.956 72.8646 115.599 72.6797 115.281 72.4297C114.969 72.1797 114.698 71.8646 114.469 71.4844C114.245 71.099 114.073 70.6406 113.953 70.1094C113.833 69.5781 113.773 68.9688 113.773 68.2812V66.3125C113.773 65.4583 113.865 64.7266 114.047 64.1172C114.234 63.5026 114.497 63 114.836 62.6094C115.18 62.2188 115.586 61.9323 116.055 61.75C116.523 61.5625 117.044 61.4688 117.617 61.4688C118.076 61.4688 118.5 61.5286 118.891 61.6484C119.286 61.763 119.643 61.9427 119.961 62.1875C120.279 62.4323 120.549 62.7474 120.773 63.1328C120.997 63.513 121.169 63.9688 121.289 64.5C121.409 65.026 121.469 65.6302 121.469 66.3125ZM119.211 68.5781V66.0078C119.211 65.5964 119.188 65.237 119.141 64.9297C119.099 64.6224 119.034 64.362 118.945 64.1484C118.857 63.9297 118.747 63.7526 118.617 63.6172C118.487 63.4818 118.339 63.3828 118.172 63.3203C118.005 63.2578 117.82 63.2266 117.617 63.2266C117.362 63.2266 117.135 63.276 116.938 63.375C116.745 63.474 116.581 63.6328 116.445 63.8516C116.31 64.0651 116.206 64.3516 116.133 64.7109C116.065 65.0651 116.031 65.4974 116.031 66.0078V68.5781C116.031 68.9896 116.052 69.3516 116.094 69.6641C116.141 69.9766 116.208 70.2448 116.297 70.4688C116.391 70.6875 116.5 70.8672 116.625 71.0078C116.755 71.1432 116.904 71.2422 117.07 71.3047C117.242 71.3672 117.43 71.3984 117.633 71.3984C117.883 71.3984 118.104 71.349 118.297 71.25C118.495 71.1458 118.661 70.9844 118.797 70.7656C118.938 70.5417 119.042 70.25 119.109 69.8906C119.177 69.5312 119.211 69.0938 119.211 68.5781ZM130.656 66.3125V68.2812C130.656 69.1354 130.565 69.8724 130.383 70.4922C130.201 71.1068 129.938 71.612 129.594 72.0078C129.255 72.3984 128.852 72.6875 128.383 72.875C127.914 73.0625 127.393 73.1562 126.82 73.1562C126.362 73.1562 125.935 73.099 125.539 72.9844C125.143 72.8646 124.786 72.6797 124.469 72.4297C124.156 72.1797 123.885 71.8646 123.656 71.4844C123.432 71.099 123.26 70.6406 123.141 70.1094C123.021 69.5781 122.961 68.9688 122.961 68.2812V66.3125C122.961 65.4583 123.052 64.7266 123.234 64.1172C123.422 63.5026 123.685 63 124.023 62.6094C124.367 62.2188 124.773 61.9323 125.242 61.75C125.711 61.5625 126.232 61.4688 126.805 61.4688C127.263 61.4688 127.688 61.5286 128.078 61.6484C128.474 61.763 128.831 61.9427 129.148 62.1875C129.466 62.4323 129.737 62.7474 129.961 63.1328C130.185 63.513 130.357 63.9688 130.477 64.5C130.596 65.026 130.656 65.6302 130.656 66.3125ZM128.398 68.5781V66.0078C128.398 65.5964 128.375 65.237 128.328 64.9297C128.286 64.6224 128.221 64.362 128.133 64.1484C128.044 63.9297 127.935 63.7526 127.805 63.6172C127.674 63.4818 127.526 63.3828 127.359 63.3203C127.193 63.2578 127.008 63.2266 126.805 63.2266C126.549 63.2266 126.323 63.276 126.125 63.375C125.932 63.474 125.768 63.6328 125.633 63.8516C125.497 64.0651 125.393 64.3516 125.32 64.7109C125.253 65.0651 125.219 65.4974 125.219 66.0078V68.5781C125.219 68.9896 125.24 69.3516 125.281 69.6641C125.328 69.9766 125.396 70.2448 125.484 70.4688C125.578 70.6875 125.688 70.8672 125.812 71.0078C125.943 71.1432 126.091 71.2422 126.258 71.3047C126.43 71.3672 126.617 71.3984 126.82 71.3984C127.07 71.3984 127.292 71.349 127.484 71.25C127.682 71.1458 127.849 70.9844 127.984 70.7656C128.125 70.5417 128.229 70.25 128.297 69.8906C128.365 69.5312 128.398 69.0938 128.398 68.5781Z" fill="white"/>
<path d="M27.4727 81.7998C27.4727 81.4222 27.3343 81.1227 27.0576 80.9014C26.7842 80.6768 26.3984 80.5645 25.9004 80.5645C25.4837 80.5645 25.1338 80.68 24.8506 80.9111C24.5706 81.139 24.4307 81.4222 24.4307 81.7607H23.4932C23.4932 81.3831 23.5957 81.0446 23.8008 80.7451C24.0091 80.4456 24.2988 80.2129 24.6699 80.0469C25.041 79.8776 25.4512 79.793 25.9004 79.793C26.6947 79.793 27.3115 79.972 27.751 80.3301C28.1904 80.6849 28.4102 81.1797 28.4102 81.8145C28.4102 82.1432 28.3092 82.4427 28.1074 82.7129C27.9056 82.9831 27.624 83.1963 27.2627 83.3525C28.0993 83.6325 28.5176 84.1875 28.5176 85.0176C28.5176 85.6556 28.2799 86.1618 27.8047 86.5361C27.3294 86.9105 26.6947 87.0977 25.9004 87.0977C25.4284 87.0977 24.9987 87.0146 24.6113 86.8486C24.2272 86.6794 23.9277 86.4401 23.7129 86.1309C23.498 85.8216 23.3906 85.4538 23.3906 85.0273H24.3281C24.3281 85.4017 24.4762 85.7142 24.7725 85.9648C25.0687 86.2122 25.4447 86.3359 25.9004 86.3359C26.4115 86.3359 26.8184 86.2171 27.1211 85.9795C27.4271 85.7419 27.5801 85.4277 27.5801 85.0371C27.5801 84.2038 27.0641 83.779 26.0322 83.7627H25.1533V82.9912H26.0273C26.5026 82.9814 26.8623 82.874 27.1064 82.6689C27.3506 82.4639 27.4727 82.1742 27.4727 81.7998ZM32.8828 87C32.8307 86.8958 32.7884 86.7103 32.7559 86.4434C32.3359 86.8796 31.8346 87.0977 31.252 87.0977C30.7311 87.0977 30.3031 86.9512 29.9678 86.6582C29.6357 86.362 29.4697 85.9876 29.4697 85.5352C29.4697 84.985 29.6781 84.5586 30.0947 84.2559C30.5146 83.9499 31.1038 83.7969 31.8623 83.7969H32.7412V83.3818C32.7412 83.0661 32.6468 82.8154 32.458 82.6299C32.2692 82.4411 31.9909 82.3467 31.623 82.3467C31.3008 82.3467 31.0306 82.4281 30.8125 82.5908C30.5944 82.7536 30.4854 82.9505 30.4854 83.1816H29.5771C29.5771 82.918 29.6699 82.6641 29.8555 82.4199C30.0443 82.1725 30.2982 81.9772 30.6172 81.834C30.9395 81.6908 31.2926 81.6191 31.6768 81.6191C32.2855 81.6191 32.7624 81.7721 33.1074 82.0781C33.4525 82.3809 33.6315 82.7992 33.6445 83.333V85.7646C33.6445 86.2497 33.7064 86.6354 33.8301 86.9219V87H32.8828ZM31.3838 86.3115C31.667 86.3115 31.9355 86.2383 32.1895 86.0918C32.4434 85.9453 32.6273 85.7549 32.7412 85.5205V84.4365H32.0332C30.9264 84.4365 30.373 84.7604 30.373 85.4082C30.373 85.6914 30.4674 85.9128 30.6562 86.0723C30.8451 86.2318 31.0876 86.3115 31.3838 86.3115ZM37.624 87V81.7168H39.6846C40.3877 81.7168 40.9264 81.8405 41.3008 82.0879C41.6784 82.332 41.8672 82.6917 41.8672 83.167C41.8672 83.4111 41.7939 83.6325 41.6475 83.8311C41.501 84.0264 41.2845 84.1761 40.998 84.2803C41.3171 84.3551 41.5726 84.5016 41.7646 84.7197C41.96 84.9378 42.0576 85.1982 42.0576 85.501C42.0576 85.986 41.8786 86.3571 41.5205 86.6143C41.1657 86.8714 40.6628 87 40.0117 87H37.624ZM38.5273 84.6807V86.2725H40.0215C40.3991 86.2725 40.6807 86.2025 40.8662 86.0625C41.055 85.9225 41.1494 85.7256 41.1494 85.4717C41.1494 84.9443 40.762 84.6807 39.9873 84.6807H38.5273ZM38.5273 83.958H39.6943C40.5407 83.958 40.9639 83.7106 40.9639 83.2158C40.9639 82.721 40.5635 82.4655 39.7627 82.4492H38.5273V83.958ZM45.373 86.3604C45.6953 86.3604 45.9769 86.2627 46.2178 86.0674C46.4587 85.8721 46.5921 85.6279 46.6182 85.335H47.4727C47.4564 85.6377 47.3522 85.9258 47.1602 86.1992C46.9681 86.4727 46.7109 86.6908 46.3887 86.8535C46.0697 87.0163 45.7311 87.0977 45.373 87.0977C44.6536 87.0977 44.0807 86.8584 43.6543 86.3799C43.2311 85.8981 43.0195 85.2406 43.0195 84.4072V84.2559C43.0195 83.7415 43.1139 83.2842 43.3027 82.8838C43.4915 82.4834 43.7617 82.1725 44.1133 81.9512C44.4681 81.7298 44.8864 81.6191 45.3682 81.6191C45.9606 81.6191 46.4521 81.7965 46.8428 82.1514C47.2367 82.5062 47.4466 82.9668 47.4727 83.5332H46.6182C46.5921 83.1914 46.4619 82.9115 46.2275 82.6934C45.9964 82.472 45.71 82.3613 45.3682 82.3613C44.9092 82.3613 44.5527 82.5273 44.2988 82.8594C44.0482 83.1882 43.9229 83.665 43.9229 84.29V84.4609C43.9229 85.0697 44.0482 85.5384 44.2988 85.8672C44.5495 86.196 44.9076 86.3604 45.373 86.3604ZM50.6807 87.0977C49.9645 87.0977 49.3818 86.8633 48.9326 86.3945C48.4834 85.9225 48.2588 85.2926 48.2588 84.5049V84.3389C48.2588 83.8148 48.3581 83.3477 48.5566 82.9375C48.7585 82.5241 49.0384 82.2018 49.3965 81.9707C49.7578 81.7363 50.1484 81.6191 50.5684 81.6191C51.2552 81.6191 51.7891 81.8454 52.1699 82.2979C52.5508 82.7503 52.7412 83.3981 52.7412 84.2412V84.6172H49.1621C49.1751 85.138 49.3265 85.5596 49.6162 85.8818C49.9092 86.2008 50.2803 86.3604 50.7295 86.3604C51.0485 86.3604 51.3187 86.2952 51.54 86.165C51.7614 86.0348 51.9551 85.8623 52.1211 85.6475L52.6729 86.0771C52.2301 86.7575 51.5661 87.0977 50.6807 87.0977ZM50.5684 82.3613C50.2038 82.3613 49.8978 82.4948 49.6504 82.7617C49.403 83.0254 49.25 83.3965 49.1914 83.875H51.8379V83.8066C51.8118 83.3477 51.6882 82.9928 51.4668 82.7422C51.2454 82.4883 50.946 82.3613 50.5684 82.3613ZM48.9912 80.3057C48.9912 80.1592 49.0352 80.0371 49.123 79.9395C49.2142 79.8385 49.3477 79.7881 49.5234 79.7881C49.6992 79.7881 49.8327 79.8385 49.9238 79.9395C50.015 80.0371 50.0605 80.1592 50.0605 80.3057C50.0605 80.4521 50.015 80.5742 49.9238 80.6719C49.8327 80.7695 49.6992 80.8184 49.5234 80.8184C49.3477 80.8184 49.2142 80.7695 49.123 80.6719C49.0352 80.5742 48.9912 80.4521 48.9912 80.3057ZM51.0908 80.3154C51.0908 80.1689 51.1348 80.0452 51.2227 79.9443C51.3138 79.8434 51.4473 79.793 51.623 79.793C51.7988 79.793 51.9323 79.8434 52.0234 79.9443C52.1146 80.0452 52.1602 80.1689 52.1602 80.3154C52.1602 80.4619 52.1146 80.584 52.0234 80.6816C51.9323 80.7793 51.7988 80.8281 51.623 80.8281C51.4473 80.8281 51.3138 80.7793 51.2227 80.6816C51.1348 80.584 51.0908 80.4619 51.0908 80.3154ZM56.3545 87V81.7168H58.415C59.1182 81.7168 59.6569 81.8405 60.0312 82.0879C60.4089 82.332 60.5977 82.6917 60.5977 83.167C60.5977 83.4111 60.5244 83.6325 60.3779 83.8311C60.2314 84.0264 60.015 84.1761 59.7285 84.2803C60.0475 84.3551 60.3031 84.5016 60.4951 84.7197C60.6904 84.9378 60.7881 85.1982 60.7881 85.501C60.7881 85.986 60.609 86.3571 60.251 86.6143C59.8962 86.8714 59.3932 87 58.7422 87H56.3545ZM57.2578 84.6807V86.2725H58.752C59.1296 86.2725 59.4111 86.2025 59.5967 86.0625C59.7855 85.9225 59.8799 85.7256 59.8799 85.4717C59.8799 84.9443 59.4925 84.6807 58.7178 84.6807H57.2578ZM57.2578 83.958H58.4248C59.2712 83.958 59.6943 83.7106 59.6943 83.2158C59.6943 82.721 59.2939 82.4655 58.4932 82.4492H57.2578V83.958ZM66.4473 84.417C66.4473 85.221 66.2633 85.8688 65.8955 86.3604C65.5277 86.8519 65.0296 87.0977 64.4014 87.0977C63.7601 87.0977 63.2555 86.8942 62.8877 86.4873V89.0312H61.9844V81.7168H62.8096L62.8535 82.3027C63.2214 81.847 63.7324 81.6191 64.3867 81.6191C65.0215 81.6191 65.5228 81.8584 65.8906 82.3369C66.2617 82.8154 66.4473 83.4811 66.4473 84.334V84.417ZM65.5439 84.3145C65.5439 83.7188 65.417 83.2484 65.1631 82.9033C64.9092 82.5583 64.5609 82.3857 64.1182 82.3857C63.5713 82.3857 63.1611 82.6283 62.8877 83.1133V85.6377C63.1579 86.1195 63.5713 86.3604 64.1279 86.3604C64.5609 86.3604 64.9043 86.1895 65.1582 85.8477C65.4154 85.5026 65.5439 84.9915 65.5439 84.3145ZM69.792 87.0977C69.0758 87.0977 68.4932 86.8633 68.0439 86.3945C67.5947 85.9225 67.3701 85.2926 67.3701 84.5049V84.3389C67.3701 83.8148 67.4694 83.3477 67.668 82.9375C67.8698 82.5241 68.1497 82.2018 68.5078 81.9707C68.8691 81.7363 69.2598 81.6191 69.6797 81.6191C70.3665 81.6191 70.9004 81.8454 71.2812 82.2979C71.6621 82.7503 71.8525 83.3981 71.8525 84.2412V84.6172H68.2734C68.2865 85.138 68.4378 85.5596 68.7275 85.8818C69.0205 86.2008 69.3916 86.3604 69.8408 86.3604C70.1598 86.3604 70.43 86.2952 70.6514 86.165C70.8727 86.0348 71.0664 85.8623 71.2324 85.6475L71.7842 86.0771C71.3415 86.7575 70.6774 87.0977 69.792 87.0977ZM69.6797 82.3613C69.3151 82.3613 69.0091 82.4948 68.7617 82.7617C68.5143 83.0254 68.3613 83.3965 68.3027 83.875H70.9492V83.8066C70.9232 83.3477 70.7995 82.9928 70.5781 82.7422C70.3568 82.4883 70.0573 82.3613 69.6797 82.3613ZM75.9443 85.8037L77.7412 81.7168H78.8691V87H77.9658V83.1572L76.2568 87H75.6318L73.8887 83.0742V87H72.9854V81.7168H74.1572L75.9443 85.8037ZM84.3623 81.7168V87H83.4541V84.9443H82.0918L80.8467 87H79.8701L81.1982 84.8076C80.8597 84.6839 80.5993 84.4935 80.417 84.2363C80.238 83.9759 80.1484 83.6732 80.1484 83.3281C80.1484 82.8464 80.3291 82.459 80.6904 82.166C81.0518 81.8698 81.5352 81.7201 82.1406 81.7168H84.3623ZM81.0566 83.3379C81.0566 83.5951 81.1445 83.8034 81.3203 83.9629C81.4961 84.1191 81.7288 84.1989 82.0186 84.2021H83.4541V82.4492H82.1553C81.82 82.4492 81.5531 82.5322 81.3545 82.6982C81.1559 82.861 81.0566 83.0742 81.0566 83.3379Z" fill="#717E90"/>
<path d="M29.526 123.906V124.855H28.395V127H27.238V124.855H23.52V123.997L26.133 118.173L27.134 118.589L24.781 123.906H27.251L27.355 121.566H28.395V123.906H29.526ZM32.3499 117.25V127H31.1539V117.393L32.3499 117.25ZM36.2889 120.149L33.7669 123.178L36.5749 127H35.1449L32.4279 123.256L34.9499 120.149H36.2889Z" fill="#717E90"/>
<path d="M27.199 144.939V153.636H26.003V146.213L23.975 147.448L23.455 146.603L26.146 144.939H27.199ZM31.055 143.886V153.636H29.859V144.029L31.055 143.886ZM34.994 146.785L32.472 149.814L35.28 153.636H33.85L31.133 149.892L33.655 146.785H34.994Z" fill="#717E90"/>
<path d="M26.627 171.445C27.589 171.445 28.3127 171.831 28.798 172.602C29.292 173.365 29.539 174.474 29.539 175.93C29.539 177.386 29.292 178.5 28.798 179.271C28.3127 180.043 27.589 180.428 26.627 180.428C25.665 180.428 24.937 180.043 24.443 179.271C23.9577 178.5 23.715 177.386 23.715 175.93C23.715 174.474 23.9577 173.365 24.443 172.602C24.937 171.831 25.665 171.445 26.627 171.445ZM26.627 172.394C26.0637 172.394 25.6433 172.672 25.366 173.226C25.0973 173.781 24.963 174.682 24.963 175.93C24.963 177.178 25.0973 178.084 25.366 178.647C25.6433 179.202 26.0637 179.479 26.627 179.479C27.1817 179.479 27.5977 179.202 27.875 178.647C28.1523 178.084 28.291 177.178 28.291 175.93C28.291 174.691 28.1523 173.794 27.875 173.239C27.5977 172.676 27.1817 172.394 26.627 172.394Z" fill="#717E90"/>
<line x1="44.4698" y1="175.806" x2="71.15" y2="150.916" stroke="#0EECEC" stroke-linecap="round" stroke-linejoin="round"/>
<line x1="82.1922" y1="163.675" x2="71.2025" y2="150.951" stroke="#0EECEC" stroke-linecap="round" stroke-linejoin="round"/>
<line x1="82.6258" y1="163.074" x2="99.0345" y2="123.272" stroke="#0EECEC" stroke-linecap="round" stroke-linejoin="round"/>
<line x1="113.375" y1="153.396" x2="99.4468" y2="123.665" stroke="#0EECEC" stroke-linecap="round" stroke-linejoin="round"/>
<line x1="113.762" y1="152.986" x2="122.324" y2="131.641" stroke="#0EECEC" stroke-linecap="round" stroke-linejoin="round"/>
<line x1="138.908" y1="168.021" x2="122.723" y2="132.025" stroke="#0EECEC" stroke-linecap="round" stroke-linejoin="round"/>
<line x1="139.361" y1="167.597" x2="161.912" y2="124.983" stroke="#0EECEC" stroke-linecap="round" stroke-linejoin="round"/>
<line x1="171.999" y1="156.657" x2="162.259" y2="125.401" stroke="#0EECEC" stroke-linecap="round" stroke-linejoin="round"/>
<line x1="172.304" y1="156.356" x2="176.412" y2="143.685" stroke="#0EECEC" stroke-linecap="round" stroke-linejoin="round"/>
<line x1="185.761" y1="166.916" x2="176.759" y2="144.011" stroke="#0EECEC" stroke-linecap="round" stroke-linejoin="round"/>
<line x1="186.216" y1="166.519" x2="190.279" y2="159.228" stroke="#0EECEC" stroke-linecap="round" stroke-linejoin="round"/>
<line x1="202.168" y1="174.074" x2="190.876" y2="159.737" stroke="#0EECEC" stroke-linecap="round" stroke-linejoin="round"/>
<line x1="202.63" y1="173.492" x2="216.239" y2="144.561" stroke="#0EECEC" stroke-linecap="round" stroke-linejoin="round"/>
<line x1="232.187" y1="167.075" x2="216.781" y2="145.018" stroke="#0EECEC" stroke-linecap="round" stroke-linejoin="round"/>
<line x1="233.089" y1="166.522" x2="311.914" y2="124.507" stroke="#0EECEC" stroke-linecap="round" stroke-linejoin="round"/>
<circle cx="44.6671" cy="175.573" r="1.25601" fill="#FF2BFF"/>
<circle cx="70.9298" cy="151.343" r="1.25601" fill="#FF2BFF"/>
<circle cx="70.9298" cy="151.343" r="1.70717" fill="#FF2BFF" fill-opacity="0.44"/>
<circle cx="82.1818" cy="163.418" r="1.25601" fill="#FF2BFF"/>
<circle cx="82.1818" cy="163.418" r="1.70717" fill="#FF2BFF" fill-opacity="0.44"/>
<circle cx="99.1857" cy="123.579" r="1.25601" fill="#FF2BFF"/>
<circle cx="99.1857" cy="123.579" r="1.70717" fill="#FF2BFF" fill-opacity="0.44"/>
<circle cx="113.373" cy="152.96" r="1.25601" fill="#FF2BFF"/>
<circle cx="113.373" cy="152.96" r="1.70717" fill="#FF2BFF" fill-opacity="0.44"/>
<circle cx="122.414" cy="131.878" r="1.25601" fill="#FF2BFF"/>
<circle cx="122.414" cy="131.878" r="1.70717" fill="#FF2BFF" fill-opacity="0.44"/>
<circle cx="138.997" cy="167.616" r="1.25601" fill="#FF2BFF"/>
<circle cx="138.997" cy="167.616" r="1.70717" fill="#FF2BFF" fill-opacity="0.44"/>
<circle cx="161.947" cy="125.493" r="1.25601" fill="#FF2BFF"/>
<circle cx="161.947" cy="125.493" r="1.70717" fill="#FF2BFF" fill-opacity="0.44"/>
<circle cx="172.047" cy="156.635" r="1.25601" fill="#FF2BFF"/>
<circle cx="172.047" cy="156.635" r="1.70717" fill="#FF2BFF" fill-opacity="0.44"/>
<circle cx="176.647" cy="143.906" r="1.25601" fill="#FF2BFF"/>
<circle cx="176.647" cy="143.906" r="1.70717" fill="#FF2BFF" fill-opacity="0.44"/>
<circle cx="185.906" cy="166.596" r="1.25601" fill="#FF2BFF"/>
<circle cx="185.906" cy="166.596" r="1.70717" fill="#FF2BFF" fill-opacity="0.44"/>
<circle cx="190.515" cy="159.645" r="1.25601" fill="#FF2BFF"/>
<circle cx="190.515" cy="159.645" r="1.70717" fill="#FF2BFF" fill-opacity="0.44"/>
<circle cx="202.172" cy="173.899" r="1.25601" fill="#FF2BFF"/>
<circle cx="202.172" cy="173.9" r="1.70717" fill="#FF2BFF" fill-opacity="0.44"/>
<circle cx="216.531" cy="144.914" r="1.25601" fill="#FF2BFF"/>
<circle cx="216.531" cy="144.914" r="1.70717" fill="#FF2BFF" fill-opacity="0.44"/>
<circle cx="232.368" cy="166.689" r="1.25601" fill="#FF2BFF"/>
<circle cx="232.368" cy="166.689" r="1.70717" fill="#FF2BFF" fill-opacity="0.44"/>
<circle cx="311.951" cy="124.713" r="1.25601" fill="#FF2BFF"/>
<circle cx="311.951" cy="124.713" r="1.70717" fill="#FF2BFF" fill-opacity="0.44"/>
<circle cx="44.6671" cy="175.574" r="1.70717" fill="#FF2BFF" fill-opacity="0.44"/>
<path d="M27.416 39.32H26.056V28.008H27.416V39.32ZM32.9629 40.968V37.176C33.3682 37.1227 33.6829 37.016 33.9069 36.856C34.1415 36.696 34.3549 36.3707 34.5469 35.88C34.7389 35.3893 34.8882 34.6907 34.9949 33.784L35.6189 28.328H43.2029V37H44.1629V40.968H41.8909V39H35.2349V40.968H32.9629ZM37.2509 33.944C37.1015 35.32 36.6695 36.3387 35.9549 37H40.9149V30.328H37.6669L37.2509 33.944ZM47.3975 39H45.4455V31.272H47.4775V35.944L50.6615 31.272H52.7095V39H50.6775V34.152L47.3975 39ZM56.7588 39H54.7268V31.272H56.7588V34.136H59.9588V31.272H61.9908V39H59.9588V35.912H56.7588V39ZM70.68 39H68.648V38.2C68.0933 38.8613 67.2773 39.192 66.2 39.192C65.5067 39.192 64.8827 38.968 64.328 38.52C63.784 38.0613 63.512 37.432 63.512 36.632C63.512 35.8 63.7787 35.176 64.312 34.76C64.856 34.344 65.4853 34.136 66.2 34.136C67.2987 34.136 68.1147 34.4507 68.648 35.08V34.04C68.648 33.6453 68.4933 33.3307 68.184 33.096C67.8747 32.8613 67.464 32.744 66.952 32.744C66.1093 32.744 65.3573 33.048 64.696 33.656L63.928 32.296C64.8453 31.4853 65.9707 31.08 67.304 31.08C68.296 31.08 69.1067 31.3093 69.736 31.768C70.3653 32.2267 70.68 32.9733 70.68 34.008V39ZM67.016 37.816C67.7733 37.816 68.3173 37.592 68.648 37.144V36.184C68.3173 35.736 67.7733 35.512 67.016 35.512C66.6 35.512 66.2533 35.6187 65.976 35.832C65.6987 36.0347 65.56 36.3173 65.56 36.68C65.56 37.032 65.6987 37.3093 65.976 37.512C66.2533 37.7147 66.6 37.816 67.016 37.816ZM81.8315 39H79.7995V33.976L77.7355 39H76.8075L74.7275 33.976V39H72.6955V31.272H75.3675L77.2715 35.88L79.1435 31.272H81.8315V39ZM85.8038 39H83.8518V31.272H85.8838V35.944L89.0678 31.272H91.1158V39H89.0838V34.152L85.8038 39ZM100.685 39H98.141L96.093 36.024L95.165 37.016V39H93.133V31.272H95.165V34.712L98.093 31.272H100.589L97.533 34.776L100.685 39ZM108.368 39H106.336V38.2C105.781 38.8613 104.965 39.192 103.888 39.192C103.194 39.192 102.57 38.968 102.016 38.52C101.472 38.0613 101.2 37.432 101.2 36.632C101.2 35.8 101.466 35.176 102 34.76C102.544 34.344 103.173 34.136 103.888 34.136C104.986 34.136 105.802 34.4507 106.336 35.08V34.04C106.336 33.6453 106.181 33.3307 105.872 33.096C105.562 32.8613 105.152 32.744 104.64 32.744C103.797 32.744 103.045 33.048 102.384 33.656L101.616 32.296C102.533 31.4853 103.658 31.08 104.992 31.08C105.984 31.08 106.794 31.3093 107.424 31.768C108.053 32.2267 108.368 32.9733 108.368 34.008V39ZM104.704 37.816C105.461 37.816 106.005 37.592 106.336 37.144V36.184C106.005 35.736 105.461 35.512 104.704 35.512C104.288 35.512 103.941 35.6187 103.664 35.832C103.386 36.0347 103.248 36.3173 103.248 36.68C103.248 37.032 103.386 37.3093 103.664 37.512C103.941 37.7147 104.288 37.816 104.704 37.816ZM113.757 40.968V37.304C113.991 37.2613 114.173 37.1867 114.301 37.08C114.439 36.9627 114.567 36.744 114.685 36.424C114.813 36.0933 114.914 35.624 114.989 35.016L115.485 31.272H121.741V37.224H122.589V40.968H120.557V39H115.805V40.968H113.757ZM117.261 33.048L117.021 35.144C116.914 36.072 116.615 36.7653 116.125 37.224H119.709V33.048H117.261ZM130.427 38.024C129.681 38.8027 128.689 39.192 127.451 39.192C126.214 39.192 125.222 38.8027 124.475 38.024C123.739 37.2347 123.371 36.2693 123.371 35.128C123.371 33.9867 123.739 33.0267 124.475 32.248C125.222 31.4693 126.214 31.08 127.451 31.08C128.689 31.08 129.681 31.4693 130.427 32.248C131.174 33.0267 131.547 33.9867 131.547 35.128C131.547 36.2693 131.174 37.2347 130.427 38.024ZM126.011 36.744C126.363 37.1707 126.843 37.384 127.451 37.384C128.059 37.384 128.539 37.1707 128.891 36.744C129.254 36.3067 129.435 35.768 129.435 35.128C129.435 34.4987 129.254 33.9707 128.891 33.544C128.539 33.1067 128.059 32.888 127.451 32.888C126.843 32.888 126.363 33.1067 126.011 33.544C125.659 33.9707 125.483 34.4987 125.483 35.128C125.483 35.768 125.659 36.3067 126.011 36.744ZM139.564 39H137.292L135.532 36.392L133.756 39H131.5L134.236 35.032L131.66 31.272H133.932L135.532 33.656L137.116 31.272H139.388L136.796 35.032L139.564 39ZM146.584 38.024C145.837 38.8027 144.845 39.192 143.608 39.192C142.37 39.192 141.378 38.8027 140.632 38.024C139.896 37.2347 139.528 36.2693 139.528 35.128C139.528 33.9867 139.896 33.0267 140.632 32.248C141.378 31.4693 142.37 31.08 143.608 31.08C144.845 31.08 145.837 31.4693 146.584 32.248C147.33 33.0267 147.704 33.9867 147.704 35.128C147.704 36.2693 147.33 37.2347 146.584 38.024ZM142.168 36.744C142.52 37.1707 143 37.384 143.608 37.384C144.216 37.384 144.696 37.1707 145.048 36.744C145.41 36.3067 145.592 35.768 145.592 35.128C145.592 34.4987 145.41 33.9707 145.048 33.544C144.696 33.1067 144.216 32.888 143.608 32.888C143 32.888 142.52 33.1067 142.168 33.544C141.816 33.9707 141.64 34.4987 141.64 35.128C141.64 35.768 141.816 36.3067 142.168 36.744ZM148.491 40.968V37.304C148.726 37.2613 148.907 37.1867 149.035 37.08C149.174 36.9627 149.302 36.744 149.419 36.424C149.547 36.0933 149.648 35.624 149.723 35.016L150.219 31.272H156.475V37.224H157.323V40.968H155.291V39H150.539V40.968H148.491ZM151.995 33.048L151.755 35.144C151.648 36.072 151.35 36.7653 150.859 37.224H154.443V33.048H151.995ZM165.274 39H163.242V38.2C162.687 38.8613 161.871 39.192 160.794 39.192C160.1 39.192 159.476 38.968 158.922 38.52C158.378 38.0613 158.106 37.432 158.106 36.632C158.106 35.8 158.372 35.176 158.906 34.76C159.45 34.344 160.079 34.136 160.794 34.136C161.892 34.136 162.708 34.4507 163.242 35.08V34.04C163.242 33.6453 163.087 33.3307 162.778 33.096C162.468 32.8613 162.058 32.744 161.546 32.744C160.703 32.744 159.951 33.048 159.29 33.656L158.522 32.296C159.439 31.4853 160.564 31.08 161.898 31.08C162.89 31.08 163.7 31.3093 164.33 31.768C164.959 32.2267 165.274 32.9733 165.274 34.008V39ZM161.61 37.816C162.367 37.816 162.911 37.592 163.242 37.144V36.184C162.911 35.736 162.367 35.512 161.61 35.512C161.194 35.512 160.847 35.6187 160.57 35.832C160.292 36.0347 160.154 36.3173 160.154 36.68C160.154 37.032 160.292 37.3093 160.57 37.512C160.847 37.7147 161.194 37.816 161.61 37.816Z" fill="white"/>
<path d="M404.093 68.8312C403.616 68.3682 402.858 68.3678 402.381 68.8303L397.5 73.5628L392.619 68.8303C392.142 68.3678 391.384 68.3682 390.907 68.8312C390.41 69.3138 390.41 70.1113 390.907 70.5939L396.106 75.6458C396.882 76.3999 398.118 76.3999 398.894 75.6458L404.093 70.5939C404.59 70.1113 404.59 69.3138 404.093 68.8312Z" fill="#FF2BFF"/>
<rect x="265.25" y="61.25" width="145.5" height="22.5" rx="4.75" stroke="url(#paint0_linear_13_4469)" stroke-width="0.5"/>
<path d="M277.607 73.2285H276.062V72.1416H277.293C277.653 72.1416 277.945 72.0869 278.168 71.9775C278.391 71.8636 278.555 71.7041 278.66 71.499C278.765 71.2939 278.817 71.0524 278.817 70.7744C278.817 70.5465 278.758 70.3369 278.64 70.1455C278.526 69.9541 278.348 69.8014 278.106 69.6875C277.865 69.569 277.557 69.5098 277.184 69.5098C276.901 69.5098 276.644 69.5599 276.411 69.6602C276.179 69.7604 275.994 69.9017 275.857 70.084C275.721 70.2617 275.652 70.4782 275.652 70.7334H273.608C273.608 70.2959 273.702 69.904 273.889 69.5576C274.08 69.2067 274.34 68.9105 274.668 68.6689C275.001 68.4229 275.383 68.236 275.816 68.1084C276.249 67.9808 276.705 67.917 277.184 67.917C277.744 67.917 278.25 67.9785 278.701 68.1016C279.152 68.2201 279.54 68.3978 279.863 68.6348C280.187 68.8717 280.435 69.1657 280.608 69.5166C280.782 69.8675 280.868 70.2754 280.868 70.7402C280.868 71.082 280.791 71.4033 280.636 71.7041C280.481 72.0049 280.26 72.2692 279.973 72.4971C279.686 72.7249 279.341 72.9049 278.94 73.0371C278.539 73.1647 278.095 73.2285 277.607 73.2285ZM276.062 72.6338H277.607C278.15 72.6338 278.631 72.6908 279.05 72.8047C279.474 72.9186 279.831 73.085 280.123 73.3037C280.419 73.5225 280.643 73.7936 280.793 74.1172C280.948 74.4362 281.025 74.8031 281.025 75.2178C281.025 75.6826 280.93 76.0951 280.738 76.4551C280.551 76.8151 280.285 77.1204 279.938 77.3711C279.597 77.6217 279.191 77.8109 278.722 77.9385C278.257 78.0661 277.744 78.1299 277.184 78.1299C276.737 78.1299 276.293 78.0752 275.851 77.9658C275.409 77.8519 275.007 77.6787 274.647 77.4463C274.287 77.2139 274 76.9154 273.786 76.5508C273.572 76.1862 273.465 75.7487 273.465 75.2383H275.522C275.522 75.4798 275.593 75.7008 275.734 75.9014C275.876 76.0973 276.072 76.2546 276.322 76.373C276.573 76.487 276.86 76.5439 277.184 76.5439C277.562 76.5439 277.883 76.4847 278.147 76.3662C278.416 76.2477 278.619 76.0859 278.756 75.8809C278.897 75.6712 278.968 75.4411 278.968 75.1904C278.968 74.9215 278.931 74.6937 278.858 74.5068C278.785 74.32 278.678 74.1673 278.537 74.0488C278.396 73.9258 278.22 73.8369 278.011 73.7822C277.806 73.7275 277.566 73.7002 277.293 73.7002H276.062V72.6338ZM286.412 76.332V73.0371C286.412 72.8001 286.373 72.5973 286.296 72.4287C286.218 72.2555 286.098 72.1211 285.934 72.0254C285.774 71.9297 285.567 71.8818 285.312 71.8818C285.093 71.8818 284.904 71.9206 284.744 71.998C284.585 72.071 284.462 72.1781 284.375 72.3193C284.288 72.4561 284.245 72.6178 284.245 72.8047H282.276C282.276 72.4902 282.349 72.1917 282.495 71.9092C282.641 71.6266 282.853 71.3783 283.131 71.1641C283.409 70.9453 283.739 70.7744 284.122 70.6514C284.509 70.5283 284.942 70.4668 285.421 70.4668C285.995 70.4668 286.506 70.5625 286.952 70.7539C287.399 70.9453 287.75 71.2324 288.005 71.6152C288.265 71.998 288.395 72.4766 288.395 73.0508V76.2158C288.395 76.6214 288.42 76.9541 288.47 77.2139C288.52 77.4691 288.593 77.6924 288.688 77.8838V78H286.699C286.604 77.7995 286.531 77.5488 286.48 77.248C286.435 76.9427 286.412 76.6374 286.412 76.332ZM286.672 73.4951L286.686 74.6094H285.585C285.325 74.6094 285.1 74.639 284.908 74.6982C284.717 74.7575 284.56 74.8418 284.437 74.9512C284.313 75.056 284.222 75.179 284.163 75.3203C284.108 75.4616 284.081 75.6165 284.081 75.7852C284.081 75.9538 284.12 76.1064 284.197 76.2432C284.275 76.3753 284.386 76.4801 284.532 76.5576C284.678 76.6305 284.849 76.667 285.045 76.667C285.341 76.667 285.599 76.6077 285.817 76.4893C286.036 76.3708 286.205 76.2249 286.323 76.0518C286.446 75.8786 286.51 75.7145 286.515 75.5596L287.034 76.3936C286.961 76.5804 286.861 76.7741 286.733 76.9746C286.61 77.1751 286.453 77.3643 286.262 77.542C286.07 77.7152 285.84 77.8587 285.571 77.9727C285.302 78.082 284.983 78.1367 284.614 78.1367C284.145 78.1367 283.719 78.0433 283.336 77.8564C282.958 77.665 282.657 77.403 282.434 77.0703C282.215 76.7331 282.105 76.3503 282.105 75.9219C282.105 75.5345 282.178 75.1904 282.324 74.8896C282.47 74.5889 282.684 74.3359 282.967 74.1309C283.254 73.9212 283.612 73.764 284.04 73.6592C284.468 73.5498 284.965 73.4951 285.53 73.4951H286.672ZM297.083 74.9102H294.766L294.752 73.6182H296.666C296.921 73.6182 297.129 73.5931 297.288 73.543C297.448 73.4883 297.564 73.4085 297.637 73.3037C297.714 73.1943 297.753 73.0622 297.753 72.9072C297.753 72.7705 297.728 72.6543 297.678 72.5586C297.632 72.4583 297.562 72.3763 297.466 72.3125C297.37 72.2487 297.249 72.2031 297.104 72.1758C296.962 72.1439 296.796 72.1279 296.604 72.1279H295.497V78H293.528V70.6035H296.604C297.088 70.6035 297.521 70.6468 297.903 70.7334C298.286 70.8154 298.612 70.9408 298.881 71.1094C299.154 71.278 299.362 71.4922 299.503 71.752C299.649 72.0072 299.722 72.3102 299.722 72.6611C299.722 72.889 299.669 73.1032 299.564 73.3037C299.464 73.5042 299.314 73.682 299.113 73.8369C298.913 73.9919 298.664 74.1195 298.368 74.2197C298.076 74.3154 297.739 74.3747 297.356 74.3975L297.083 74.9102ZM297.083 78H294.28L294.957 76.4756H297.083C297.325 76.4756 297.523 76.446 297.678 76.3867C297.833 76.3275 297.947 76.2409 298.02 76.127C298.097 76.0085 298.136 75.8672 298.136 75.7031C298.136 75.5436 298.102 75.4046 298.033 75.2861C297.965 75.1676 297.853 75.0765 297.698 75.0127C297.548 74.9443 297.343 74.9102 297.083 74.9102H295.244L295.258 73.6182H297.35L297.828 74.1377C298.348 74.1696 298.776 74.2676 299.113 74.4316C299.451 74.5957 299.699 74.8053 299.858 75.0605C300.022 75.3112 300.104 75.5869 300.104 75.8877C300.104 76.2386 300.038 76.5462 299.906 76.8105C299.774 77.0749 299.578 77.2959 299.318 77.4736C299.063 77.6468 298.749 77.779 298.375 77.8701C298.001 77.9567 297.571 78 297.083 78ZM304.37 76.5986C304.612 76.5986 304.826 76.5531 305.013 76.4619C305.2 76.3662 305.345 76.234 305.45 76.0654C305.56 75.8923 305.617 75.6895 305.621 75.457H307.474C307.469 75.9766 307.33 76.4391 307.057 76.8447C306.783 77.2458 306.416 77.5625 305.956 77.7949C305.496 78.0228 304.981 78.1367 304.411 78.1367C303.837 78.1367 303.336 78.041 302.907 77.8496C302.483 77.6582 302.13 77.3939 301.848 77.0566C301.565 76.7148 301.353 76.3184 301.212 75.8672C301.071 75.4115 301 74.9238 301 74.4043V74.2061C301 73.682 301.071 73.1943 301.212 72.7432C301.353 72.2874 301.565 71.891 301.848 71.5537C302.13 71.2119 302.483 70.9453 302.907 70.7539C303.331 70.5625 303.828 70.4668 304.397 70.4668C305.004 70.4668 305.535 70.583 305.99 70.8154C306.451 71.0479 306.811 71.3805 307.07 71.8135C307.335 72.2419 307.469 72.75 307.474 73.3379H305.621C305.617 73.0918 305.564 72.8685 305.464 72.668C305.368 72.4674 305.227 72.3079 305.04 72.1895C304.858 72.0664 304.632 72.0049 304.363 72.0049C304.076 72.0049 303.841 72.0664 303.659 72.1895C303.477 72.3079 303.336 72.472 303.235 72.6816C303.135 72.8867 303.064 73.1214 303.023 73.3857C302.987 73.6455 302.969 73.9189 302.969 74.2061V74.4043C302.969 74.6914 302.987 74.9671 303.023 75.2314C303.06 75.4958 303.128 75.7305 303.229 75.9355C303.333 76.1406 303.477 76.3024 303.659 76.4209C303.841 76.5394 304.078 76.5986 304.37 76.5986ZM312.02 78.1367C311.445 78.1367 310.93 78.0456 310.475 77.8633C310.019 77.6764 309.632 77.4189 309.312 77.0908C308.998 76.7627 308.757 76.3822 308.588 75.9492C308.419 75.5117 308.335 75.0469 308.335 74.5547V74.2812C308.335 73.7207 308.415 73.208 308.574 72.7432C308.734 72.2783 308.962 71.875 309.258 71.5332C309.559 71.1914 309.923 70.9294 310.352 70.7471C310.78 70.5602 311.263 70.4668 311.801 70.4668C312.325 70.4668 312.79 70.5534 313.195 70.7266C313.601 70.8997 313.94 71.1458 314.214 71.4648C314.492 71.7839 314.701 72.1667 314.843 72.6133C314.984 73.0553 315.055 73.5475 315.055 74.0898V74.9102H309.176V73.5977H313.12V73.4473C313.12 73.1738 313.07 72.93 312.97 72.7158C312.874 72.4971 312.728 72.3239 312.532 72.1963C312.336 72.0687 312.086 72.0049 311.78 72.0049C311.521 72.0049 311.297 72.0618 311.11 72.1758C310.924 72.2897 310.771 72.4492 310.652 72.6543C310.538 72.8594 310.452 73.1009 310.393 73.3789C310.338 73.6523 310.311 73.9531 310.311 74.2812V74.5547C310.311 74.8509 310.352 75.1243 310.434 75.375C310.52 75.6257 310.641 75.8421 310.796 76.0244C310.955 76.2067 311.147 76.348 311.37 76.4482C311.598 76.5485 311.855 76.5986 312.143 76.5986C312.498 76.5986 312.828 76.5303 313.134 76.3936C313.444 76.2523 313.71 76.0404 313.934 75.7578L314.891 76.7969C314.736 77.0202 314.524 77.2344 314.255 77.4395C313.991 77.6445 313.672 77.8132 313.298 77.9453C312.924 78.0729 312.498 78.1367 312.02 78.1367ZM308.943 68.6484C308.943 68.4115 309.032 68.2109 309.21 68.0469C309.392 67.8783 309.616 67.7939 309.88 67.7939C310.153 67.7939 310.379 67.8783 310.557 68.0469C310.734 68.2109 310.823 68.4115 310.823 68.6484C310.823 68.8854 310.734 69.0859 310.557 69.25C310.379 69.4141 310.153 69.4961 309.88 69.4961C309.616 69.4961 309.392 69.4141 309.21 69.25C309.032 69.0859 308.943 68.8854 308.943 68.6484ZM312.3 68.6553C312.3 68.4137 312.389 68.2109 312.566 68.0469C312.744 67.8828 312.967 67.8008 313.236 67.8008C313.505 67.8008 313.729 67.8828 313.906 68.0469C314.089 68.2109 314.18 68.4137 314.18 68.6553C314.18 68.8923 314.089 69.0928 313.906 69.2568C313.729 69.4163 313.505 69.4961 313.236 69.4961C312.967 69.4961 312.744 69.4163 312.566 69.2568C312.389 69.0928 312.3 68.8923 312.3 68.6553ZM323.347 74.9102H321.029L321.016 73.6182H322.93C323.185 73.6182 323.392 73.5931 323.552 73.543C323.711 73.4883 323.827 73.4085 323.9 73.3037C323.978 73.1943 324.017 73.0622 324.017 72.9072C324.017 72.7705 323.992 72.6543 323.941 72.5586C323.896 72.4583 323.825 72.3763 323.729 72.3125C323.634 72.2487 323.513 72.2031 323.367 72.1758C323.226 72.1439 323.06 72.1279 322.868 72.1279H321.761V78H319.792V70.6035H322.868C323.351 70.6035 323.784 70.6468 324.167 70.7334C324.55 70.8154 324.876 70.9408 325.145 71.1094C325.418 71.278 325.625 71.4922 325.767 71.752C325.912 72.0072 325.985 72.3102 325.985 72.6611C325.985 72.889 325.933 73.1032 325.828 73.3037C325.728 73.5042 325.577 73.682 325.377 73.8369C325.176 73.9919 324.928 74.1195 324.632 74.2197C324.34 74.3154 324.003 74.3747 323.62 74.3975L323.347 74.9102ZM323.347 78H320.544L321.221 76.4756H323.347C323.588 76.4756 323.786 76.446 323.941 76.3867C324.096 76.3275 324.21 76.2409 324.283 76.127C324.361 76.0085 324.399 75.8672 324.399 75.7031C324.399 75.5436 324.365 75.4046 324.297 75.2861C324.229 75.1676 324.117 75.0765 323.962 75.0127C323.812 74.9443 323.606 74.9102 323.347 74.9102H321.508L321.521 73.6182H323.613L324.092 74.1377C324.611 74.1696 325.04 74.2676 325.377 74.4316C325.714 74.5957 325.963 74.8053 326.122 75.0605C326.286 75.3112 326.368 75.5869 326.368 75.8877C326.368 76.2386 326.302 76.5462 326.17 76.8105C326.038 77.0749 325.842 77.2959 325.582 77.4736C325.327 77.6468 325.012 77.779 324.639 77.8701C324.265 77.9567 323.834 78 323.347 78ZM329.547 72.0254V80.8438H327.578V70.6035H329.403L329.547 72.0254ZM334.229 74.2197V74.3633C334.229 74.901 334.166 75.4001 334.038 75.8604C333.915 76.3206 333.733 76.7217 333.491 77.0635C333.25 77.4007 332.949 77.665 332.589 77.8564C332.233 78.0433 331.823 78.1367 331.358 78.1367C330.907 78.1367 330.515 78.0456 330.183 77.8633C329.85 77.681 329.57 77.4258 329.342 77.0977C329.118 76.765 328.938 76.3799 328.802 75.9424C328.665 75.5049 328.56 75.0355 328.487 74.5342V74.1582C328.56 73.6204 328.665 73.1283 328.802 72.6816C328.938 72.2305 329.118 71.8408 329.342 71.5127C329.57 71.18 329.848 70.9225 330.176 70.7402C330.508 70.5579 330.898 70.4668 331.345 70.4668C331.814 70.4668 332.227 70.5557 332.582 70.7334C332.942 70.9111 333.243 71.1663 333.484 71.499C333.73 71.8317 333.915 72.2282 334.038 72.6885C334.166 73.1488 334.229 73.6592 334.229 74.2197ZM332.254 74.3633V74.2197C332.254 73.9053 332.227 73.6159 332.172 73.3516C332.122 73.0827 332.04 72.848 331.926 72.6475C331.816 72.4469 331.671 72.292 331.488 72.1826C331.311 72.0687 331.094 72.0117 330.839 72.0117C330.57 72.0117 330.34 72.055 330.148 72.1416C329.962 72.2282 329.809 72.3535 329.69 72.5176C329.572 72.6816 329.483 72.8776 329.424 73.1055C329.365 73.3333 329.328 73.5908 329.314 73.8779V74.8281C329.337 75.1654 329.401 75.4684 329.506 75.7373C329.611 76.0016 329.772 76.2113 329.991 76.3662C330.21 76.5212 330.497 76.5986 330.853 76.5986C331.112 76.5986 331.331 76.5417 331.509 76.4277C331.687 76.3092 331.83 76.1475 331.939 75.9424C332.053 75.7373 332.133 75.5003 332.179 75.2314C332.229 74.9626 332.254 74.6732 332.254 74.3633ZM338.857 78.1367C338.283 78.1367 337.768 78.0456 337.312 77.8633C336.857 77.6764 336.469 77.4189 336.15 77.0908C335.836 76.7627 335.594 76.3822 335.426 75.9492C335.257 75.5117 335.173 75.0469 335.173 74.5547V74.2812C335.173 73.7207 335.253 73.208 335.412 72.7432C335.572 72.2783 335.799 71.875 336.096 71.5332C336.396 71.1914 336.761 70.9294 337.189 70.7471C337.618 70.5602 338.101 70.4668 338.639 70.4668C339.163 70.4668 339.628 70.5534 340.033 70.7266C340.439 70.8997 340.778 71.1458 341.052 71.4648C341.33 71.7839 341.539 72.1667 341.681 72.6133C341.822 73.0553 341.893 73.5475 341.893 74.0898V74.9102H336.014V73.5977H339.958V73.4473C339.958 73.1738 339.908 72.93 339.808 72.7158C339.712 72.4971 339.566 72.3239 339.37 72.1963C339.174 72.0687 338.924 72.0049 338.618 72.0049C338.358 72.0049 338.135 72.0618 337.948 72.1758C337.761 72.2897 337.609 72.4492 337.49 72.6543C337.376 72.8594 337.29 73.1009 337.23 73.3789C337.176 73.6523 337.148 73.9531 337.148 74.2812V74.5547C337.148 74.8509 337.189 75.1243 337.271 75.375C337.358 75.6257 337.479 75.8421 337.634 76.0244C337.793 76.2067 337.985 76.348 338.208 76.4482C338.436 76.5485 338.693 76.5986 338.98 76.5986C339.336 76.5986 339.666 76.5303 339.972 76.3936C340.282 76.2523 340.548 76.0404 340.771 75.7578L341.729 76.7969C341.574 77.0202 341.362 77.2344 341.093 77.4395C340.828 77.6445 340.509 77.8132 340.136 77.9453C339.762 78.0729 339.336 78.1367 338.857 78.1367ZM347.512 75.7373L349.453 70.6035H351.06L348.175 78H346.849L343.978 70.6035H345.584L347.512 75.7373ZM345.112 70.6035V78H343.144V70.6035H345.112ZM349.959 78V70.6035H351.928V78H349.959ZM355.243 74.3086H357.239L355.182 78H353.192L355.243 74.3086ZM356.569 70.6035H359.816V78H357.848V72.1279H356.569C356.3 72.1279 356.077 72.1781 355.899 72.2783C355.722 72.374 355.59 72.4993 355.503 72.6543C355.421 72.8047 355.38 72.9596 355.38 73.1191C355.38 73.2741 355.421 73.4245 355.503 73.5703C355.585 73.7161 355.713 73.8369 355.886 73.9326C356.059 74.0283 356.275 74.0762 356.535 74.0762H358.579V75.416H356.535C356.048 75.416 355.61 75.3568 355.223 75.2383C354.84 75.1198 354.512 74.9557 354.238 74.7461C353.969 74.5319 353.762 74.2835 353.616 74.001C353.475 73.7139 353.404 73.3994 353.404 73.0576C353.404 72.7021 353.477 72.3763 353.623 72.0801C353.769 71.7839 353.979 71.5241 354.252 71.3008C354.525 71.0775 354.856 70.9066 355.243 70.7881C355.635 70.665 356.077 70.6035 356.569 70.6035Z" fill="white"/>
<defs>
<filter id="filter0_d_13_4469" x="0" y="0" width="440" height="221" filterUnits="userSpaceOnUse" color-interpolation-filters="sRGB">
<feFlood flood-opacity="0" result="BackgroundImageFix"/>
<feColorMatrix in="SourceAlpha" type="matrix" values="0 0 0 0 0 0 0 0 0 0 0 0 0 0 0 0 0 0 127 0" result="hardAlpha"/>
<feOffset dy="4"/>
<feGaussianBlur stdDeviation="2"/>
<feComposite in2="hardAlpha" operator="out"/>
<feColorMatrix type="matrix" values="0 0 0 0 0 0 0 0 0 0 0 0 0 0 0 0 0 0 0.25 0"/>
<feBlend mode="normal" in2="BackgroundImageFix" result="effect1_dropShadow_13_4469"/>
<feBlend mode="normal" in="SourceGraphic" in2="effect1_dropShadow_13_4469" result="shape"/>
</filter>
<linearGradient id="paint0_linear_13_4469" x1="265" y1="72.7447" x2="411" y2="72.7447" gradientUnits="userSpaceOnUse">
<stop stop-color="#0EECEC"/>
<stop offset="1" stop-color="#0EECEC" stop-opacity="0"/>
</linearGradient>
</defs>
</svg>
