<svg width="40" height="47" viewBox="0 0 40 47" fill="none" xmlns="http://www.w3.org/2000/svg">
<path d="M3.3327 22.6444C3.3327 21.4713 3.3327 20.2992 3.3327 19.128C3.3327 18.3121 3.69969 17.66 4.23547 17.0811C4.87289 16.3902 5.66221 15.9219 6.50431 15.5345C7.53782 15.0574 8.62205 14.699 9.73626 14.4661C10.8944 14.2252 12.0568 13.9975 13.2257 13.8176C14.0753 13.6865 14.9393 13.6502 15.7954 13.5583C17.884 13.3339 19.9794 13.3655 22.0723 13.424C23.3496 13.4599 24.6248 13.5982 25.8992 13.7113C26.5539 13.7687 27.2107 13.8381 27.8564 13.9573C28.9017 14.1501 29.9428 14.372 30.9784 14.6126C31.8991 14.8308 32.795 15.1424 33.6523 15.5427C34.563 15.9622 35.4055 16.4789 36.0583 17.2567C36.4997 17.7825 36.7941 18.3739 36.8125 19.0763C36.8225 19.4591 36.8372 19.8416 36.8376 20.2255C36.8398 22.1395 36.8247 24.0535 36.8437 25.9672C36.8523 26.8251 36.5302 27.5171 35.9589 28.1294C35.2866 28.8476 34.4768 29.3733 33.615 29.8258C32.5072 30.4068 31.3372 30.8212 30.1216 31.1128C28.9406 31.401 27.7053 31.3792 26.5352 31.0496C25.3257 30.7139 24.1267 30.3397 22.9233 29.9813C22.1085 29.7385 21.2869 29.5259 20.438 29.4401C19.8095 29.3765 19.1872 29.4663 18.5893 29.6258C17.3651 29.9529 16.1531 30.3271 14.9404 30.6948C14.0685 30.9595 13.1858 31.1703 12.283 31.2895C11.5221 31.3904 10.7748 31.2737 10.0386 31.11C8.48657 30.7627 7.02214 30.1809 5.66939 29.3363C5.04598 28.9474 4.48111 28.4899 4.0053 27.9279C3.57437 27.4191 3.30827 26.8506 3.3133 26.1658C3.32156 24.9933 3.31546 23.8212 3.31546 22.6487L3.3327 22.6444Z" fill="#0EECEC"/>
<path d="M36.2876 14.9664C36.0811 14.8397 35.9514 14.7574 35.8207 14.6791C35.4911 14.4845 35.1668 14.2802 34.8281 14.1046C34.6263 13.9994 34.5251 13.8629 34.4985 13.6377C34.4098 12.8779 34.3358 12.1148 34.2022 11.3625C33.9027 9.67466 33.3881 8.06694 32.3385 6.67325C31.5208 5.58696 30.507 4.72547 29.3396 4.03742C27.9875 3.24021 26.531 2.71268 25.0098 2.34675C23.3045 1.93665 21.5739 1.69784 19.8215 1.73627C18.8325 1.75746 17.8439 1.8975 16.8599 2.0214C15.4411 2.20095 14.0711 2.58483 12.7424 3.10913C11.2586 3.69447 9.91305 4.49886 8.76176 5.61891C7.55373 6.79462 6.78487 8.21453 6.32629 9.82045C5.98981 10.9983 5.7995 12.201 5.70936 13.4194C5.68602 13.7336 5.55314 13.915 5.27519 14.0514C4.9107 14.231 4.56811 14.4518 4.21439 14.6522C4.13467 14.6975 4.04778 14.7305 3.91168 14.7934C3.89875 14.6497 3.87576 14.5499 3.88259 14.4522C3.99463 13.0578 4.10164 11.6627 4.39791 10.2909C4.94662 7.74985 6.08928 5.55068 8.09273 3.84278C9.24187 2.86314 10.5296 2.11549 11.9262 1.54989C13.5317 0.899554 15.1976 0.484065 16.9117 0.244183C18.1829 0.0664253 19.4577 -0.0362779 20.7401 0.0118423C22.3434 0.0659547 23.9371 0.283872 25.4961 0.662186C27.2133 1.08485 28.8591 1.69174 30.3763 2.61284C32.2149 3.72894 33.6941 5.19266 34.6777 7.12393C35.2242 8.19694 35.5668 9.33817 35.8146 10.5139C36.0893 11.8178 36.191 13.14 36.2879 14.464C36.2965 14.6005 36.2876 14.7402 36.2876 14.9664Z" fill="#7F8A94"/>
<path d="M34.5066 31.4312C34.5066 31.555 34.5199 31.6595 34.5044 31.7594C34.266 33.3078 33.9956 34.8477 33.4943 36.3408C33.1764 37.286 32.7994 38.2046 32.2058 39.0119C31.9313 39.3881 31.6204 39.7363 31.2775 40.0515C29.7725 41.4208 28.2122 42.725 26.5477 43.8986C25.5002 44.6373 24.4197 45.3206 23.2177 45.7914C22.604 46.0331 21.9503 46.1572 21.2908 46.1574C20.5129 46.1574 19.7351 46.1556 18.9566 46.1613C18.0527 46.1681 17.2059 45.9415 16.3951 45.5566C15.21 44.9949 14.123 44.2785 13.0726 43.5025C11.6958 42.4855 10.3994 41.3705 9.09985 40.2576C8.03725 39.348 7.36716 38.1989 6.88524 36.9179C6.45271 35.7643 6.13668 34.5703 5.94187 33.3538C5.86 32.8467 5.76231 32.3422 5.67756 31.8355C5.66284 31.7479 5.67542 31.656 5.67542 31.5385C5.77561 31.5597 5.84707 31.5626 5.90812 31.5892C6.34695 31.7798 6.77859 31.9878 7.2228 32.1637C7.46843 32.2611 7.54599 32.418 7.59088 32.6697C7.83938 34.1216 8.1809 35.5487 8.78025 36.9046C9.16137 37.7734 9.74577 38.5377 10.4842 39.1332C11.4757 39.942 12.4363 40.7898 13.4436 41.578C14.6311 42.5078 15.8647 43.3736 17.2436 44.0106C17.8606 44.295 18.5005 44.4556 19.1882 44.4322C19.798 44.4114 20.4084 44.4114 21.0196 44.4322C21.8506 44.462 22.5979 44.1988 23.3179 43.8275C24.2771 43.3326 25.1716 42.7351 26.0428 42.0995C27.4458 41.0757 28.754 39.9377 30.0623 38.7986C30.8573 38.1062 31.3026 37.1984 31.665 36.2421C32.1153 35.0527 32.4004 33.8185 32.5986 32.5641C32.6306 32.3591 32.7024 32.205 32.9017 32.116C33.3822 31.9005 33.8587 31.6789 34.3381 31.462C34.3787 31.4437 34.4261 31.4452 34.5066 31.4312Z" fill="#7F8A94"/>
<path d="M19.9519 38.2442C18.5442 38.2643 17.2141 37.968 16.0118 37.2215C15.6085 36.9701 15.2422 36.6555 14.8831 36.3427C14.6038 36.0996 14.5434 35.8633 14.6677 35.6881C14.8472 35.4346 15.118 35.4848 15.3568 35.5462C15.7263 35.6418 16.0847 35.7807 16.4496 35.896C17.7754 36.3147 19.1328 36.4727 20.5215 36.4056C21.7158 36.3478 22.8639 36.0824 23.9865 35.6874C24.1988 35.6068 24.4153 35.5375 24.635 35.4798C24.7632 35.4502 24.8964 35.4495 25.025 35.4777C25.2839 35.5362 25.3859 35.7757 25.2502 36.0045C25.1677 36.136 25.069 36.2567 24.9564 36.3636C24.1578 37.1604 23.1928 37.6632 22.1145 37.9702C21.4067 38.1724 20.6838 38.2438 19.9519 38.2442Z" fill="#7F8A94"/>
<path d="M38.2777 22.6971C38.2777 21.754 38.2777 20.8108 38.2777 19.8673C38.2777 19.7721 38.2777 19.6763 38.2835 19.58C38.2914 19.4396 38.3668 19.3545 38.5086 19.3527C38.9262 19.3479 39.344 19.3479 39.7623 19.3527C39.9232 19.3527 39.9964 19.4515 39.9975 19.6077C39.9975 19.6795 40 19.7513 40 19.8231V25.6615C40 25.7333 40 25.8051 39.9971 25.8769C39.9918 26.0339 39.9077 26.1283 39.7537 26.1283C39.3479 26.1348 38.9418 26.1348 38.5356 26.1283C38.3639 26.1258 38.2785 26.0206 38.277 25.8489C38.2749 25.5856 38.2737 25.323 38.2734 25.0611C38.2734 24.2732 38.2734 23.4852 38.2734 22.6971H38.2777Z" fill="#FF2BFF"/>
<path d="M0.00281805 22.7158C0.00281805 21.7342 0.00281805 20.7535 0.00281805 19.7736C0.00281805 19.3693 0.0240004 19.3495 0.428712 19.3452C0.740057 19.342 1.05104 19.3384 1.36239 19.3452C1.67373 19.352 1.71898 19.3966 1.72149 19.7018C1.72832 20.4311 1.72582 21.1608 1.72617 21.8905C1.72617 23.1342 1.72617 24.3779 1.72617 25.6216C1.72617 25.6935 1.73084 25.7653 1.72402 25.8371C1.70355 26.0468 1.64573 26.119 1.43673 26.1265C1.06614 26.14 0.69506 26.1416 0.323506 26.1316C0.0688998 26.1251 0.00819691 26.0598 0.00388765 25.8026C-0.00365357 25.3358 0.00209913 24.869 0.00209913 24.4021C0.00209913 23.8398 0.00209913 23.2772 0.00209913 22.7143L0.00281805 22.7158Z" fill="#FF2BFF"/>
<path d="M8.72296 23.8259L9.74796 20.5109H10.848L11.873 23.8259L11.783 23.9609H11.183L10.973 23.2609H9.62296L9.41296 23.9609H8.81296L8.72296 23.8259ZM9.81796 22.6109H10.778L10.338 21.1609H10.258L9.81796 22.6109ZM12.373 23.9609V20.5109H13.233L14.203 22.5809L15.173 20.5109H16.033V23.9609H15.313V21.7809L14.503 23.5109H13.903L13.093 21.7809V23.9609H12.373ZM16.5355 23.8259L17.5605 20.5109H18.6605L19.6855 23.8259L19.5955 23.9609H18.9955L18.7855 23.2609H17.4355L17.2255 23.9609H16.6255L16.5355 23.8259ZM17.6305 22.6109H18.5905L18.1505 21.1609H18.0705L17.6305 22.6109ZM20.1855 23.9609V20.5109H21.8655C22.4255 20.5109 22.7055 20.7909 22.7055 21.3509V21.9209C22.7055 22.3376 22.5505 22.5976 22.2405 22.7009L22.8055 23.8109L22.7205 23.9609H22.1005L21.4905 22.7609H20.9055V23.9609H20.1855ZM20.9055 22.1109H21.8355C21.9355 22.1109 21.9855 22.0609 21.9855 21.9609V21.3109C21.9855 21.2109 21.9355 21.1609 21.8355 21.1609H20.9055V22.1109ZM23.4277 23.9609V20.5109H25.7877V21.1609H24.1477V21.8609H25.6377V22.5109H24.1477V23.3109H25.7877V23.9609H23.4277ZM26.4453 23.9609V20.5109H27.1653V23.3109H28.6553V23.9609H26.4453ZM29.1846 23.9609V20.5109H29.9046V23.3109H31.3946V23.9609H29.1846Z" fill="black" fill-opacity="0.27"/>
</svg>
