<svg width="45" height="45" viewBox="0 0 45 45" fill="none" xmlns="http://www.w3.org/2000/svg">
<g opacity="0.7">
<path d="M30.9375 16.1812C30.1688 16.1812 29.5312 15.5437 29.5312 14.775V12.1875C29.5312 10.2187 28.6875 8.30625 27.225 6.975C25.7438 5.625 23.8313 5.00625 21.8063 5.19375C18.4313 5.5125 15.4688 8.9625 15.4688 12.5625V14.3812C15.4688 15.15 14.8312 15.7875 14.0625 15.7875C13.2938 15.7875 12.6562 15.15 12.6562 14.3812V12.5437C12.6562 7.5 16.725 2.85 21.5437 2.38125C24.3562 2.11875 27.0562 3 29.1187 4.89375C31.1625 6.75 32.3438 9.4125 32.3438 12.1875V14.775C32.3438 15.5437 31.7062 16.1812 30.9375 16.1812Z" fill="#FF2BFF"/>
<path d="M28.1251 42.6562H16.8751C8.21265 42.6562 6.60015 38.625 6.18765 34.7063L4.7814 23.475C4.57515 21.45 4.50015 18.5437 6.4689 16.3687C8.1564 14.4937 10.9501 13.5938 15.0001 13.5938H30.0001C34.0689 13.5938 36.8626 14.5125 38.5314 16.3687C40.4814 18.5437 40.4252 21.45 40.2189 23.4375L38.8127 34.7063C38.4002 38.625 36.7876 42.6562 28.1251 42.6562ZM15.0001 16.4062C11.8314 16.4062 9.6564 17.025 8.55015 18.2625C7.6314 19.275 7.3314 20.8313 7.57515 23.1563L8.9814 34.3875C9.30015 37.3875 10.1251 39.8625 16.8751 39.8625H28.1251C34.8751 39.8625 35.7001 37.4063 36.0189 34.425L37.4251 23.1563C37.6689 20.8688 37.3689 19.3125 36.4502 18.2812C35.3439 17.025 33.1689 16.4062 30.0001 16.4062H15.0001Z" fill="#FF2BFF"/>
<path d="M28.9123 24.6563C27.8623 24.6563 27.0186 23.8125 27.0186 22.7813C27.0186 21.75 27.8623 20.9062 28.8936 20.9062C29.9248 20.9062 30.7686 21.75 30.7686 22.7813C30.7686 23.8125 29.9436 24.6563 28.9123 24.6563Z" fill="#FF2BFF"/>
<path d="M15.7873 24.6563C14.7373 24.6563 13.8936 23.8125 13.8936 22.7813C13.8936 21.75 14.7373 20.9062 15.7686 20.9062C16.7998 20.9062 17.6436 21.75 17.6436 22.7813C17.6436 23.8125 16.8186 24.6563 15.7873 24.6563Z" fill="#FF2BFF"/>
</g>
</svg>
