<svg width="21" height="21" viewBox="0 0 21 21" fill="none" xmlns="http://www.w3.org/2000/svg">
<g clip-path="url(#clip0_13_12413)">
<path d="M20.6849 13.0412C19.2833 18.6656 13.585 22.0888 7.95886 20.6852C2.33275 19.2816 -1.08889 13.586 0.314856 7.96109C1.7186 2.33613 7.41412 -1.08866 13.039 0.315194C18.6638 1.71904 22.0886 7.41488 20.6849 13.0412Z" fill="#F7931A"/>
<path d="M15.1307 9.00424C15.3394 7.60701 14.2756 6.85584 12.8207 6.35478L13.2932 4.46215L12.1407 4.17508L11.6804 6.01794C11.3778 5.94255 11.0668 5.87094 10.7576 5.8008L11.2196 3.94576L10.0683 3.65869L9.59718 5.55058L7.27332 4.97497L6.96672 6.20568C6.96672 6.20568 7.82163 6.40161 7.80357 6.41379C8.27019 6.53034 8.35482 6.83904 8.34054 7.0839L7.04757 12.2688C6.99045 12.4105 6.84576 12.6231 6.51963 12.5418C6.53118 12.5586 5.68215 12.3318 5.68215 12.3318L5.11011 13.6526L7.43061 14.2385L6.9537 16.1532L8.1045 16.4402L8.577 14.5461C8.892 14.6314 9.1965 14.7101 9.49491 14.7843L9.0243 16.6696L10.1766 16.9566L10.6535 15.0456C12.6183 15.4173 14.0959 15.2674 14.717 13.4916C15.218 12.061 14.6924 11.2357 13.6586 10.6973C14.4114 10.523 14.9784 10.028 15.1297 9.00497L15.1307 9.00424ZM12.4973 12.6959C12.1403 14.1266 9.73211 13.3534 8.9507 13.1592L9.58343 10.6229C10.3644 10.8178 12.8688 11.2038 12.4977 12.6957L12.4973 12.6959ZM12.8547 8.98397C12.5298 10.286 10.5246 9.62447 9.87386 9.46214L10.4467 7.16118C11.0977 7.32372 13.1926 7.62633 12.8539 8.98387" fill="white"/>
</g>
<defs>
<clipPath id="clip0_13_12413">
<rect width="21" height="21" fill="white"/>
</clipPath>
</defs>
</svg>
