<svg width="54" height="48" viewBox="0 0 54 48" fill="none" xmlns="http://www.w3.org/2000/svg">
<path d="M45 16H38.25V8H6.75C4.26375 8 2.25 9.79 2.25 12V34H6.75C6.75 37.31 9.77625 40 13.5 40C17.2238 40 20.25 37.31 20.25 34H33.75C33.75 37.31 36.7762 40 40.5 40C44.2238 40 47.25 37.31 47.25 34H51.75V24L45 16ZM13.5 37C11.6325 37 10.125 35.66 10.125 34C10.125 32.34 11.6325 31 13.5 31C15.3675 31 16.875 32.34 16.875 34C16.875 35.66 15.3675 37 13.5 37ZM43.875 19L48.2962 24H38.25V19H43.875ZM40.5 37C38.6325 37 37.125 35.66 37.125 34C37.125 32.34 38.6325 31 40.5 31C42.3675 31 43.875 32.34 43.875 34C43.875 35.66 42.3675 37 40.5 37Z" fill="#0EECEC"/>
</svg>
