<svg width="42" height="42" viewBox="0 0 42 42" fill="none" xmlns="http://www.w3.org/2000/svg">
<path d="M41 22.1765H41.6H41ZM37.8991 11.886L37.4748 11.4618L37.8991 11.886ZM27.9596 31.2953L28.3838 30.8711L27.9596 31.2953ZM27.9596 22.4694L28.3838 22.8936L27.9596 22.4694ZM40.7071 13.0576L40.2828 13.4819L40.7071 13.0576ZM1.58578 40.4142L2.01005 39.9899L1.58578 40.4142ZM1.81436 11.8197L1.37723 12.2307L1.81436 11.8197ZM1.94501 11.9503L1.53401 12.3875L1.94501 11.9503ZM38.6313 1.14645L39.0556 0.722179L38.6313 1.14645ZM1.81436 1.94501L2.25149 2.35601L1.81436 1.94501ZM1.94501 1.81436L2.35601 2.25149L1.94501 1.81436ZM6.88235 1.6L37.7778 1.6V0.399998L6.88235 0.399998V1.6ZM5 41.6L39 41.6V40.4L5 40.4V41.6ZM0.399998 6.88235L0.399998 37H1.6L1.6 6.88235H0.399998ZM39 12.1647L6.88235 12.1647V13.3647L39 13.3647V12.1647ZM40.4 31.5882L40.4 39H41.6L41.6 31.5882H40.4ZM40.4 14.7647L40.4 22.1765H41.6L41.6 14.7647L40.4 14.7647ZM27.0667 24.1765L27.0667 29.5882H28.2667L28.2667 24.1765H27.0667ZM29.6667 32.1882H41V30.9882H29.6667V32.1882ZM40.4 22.1765L40.4 31.5882H41.6L41.6 22.1765H40.4ZM41 21.5765L29.6667 21.5765V22.7765L41 22.7765V21.5765ZM38.1778 2V6.76471H39.3778V2H38.1778ZM32.7778 12.1647L27.6667 12.1647V13.3647L32.7778 13.3647V12.1647ZM38.1778 6.76471C38.1778 8.19588 38.1765 9.2089 38.0733 9.97657C37.9724 10.727 37.7841 11.1525 37.4748 11.4618L38.3234 12.3103C38.8928 11.7409 39.1438 11.0199 39.2626 10.1365C39.3791 9.27025 39.3778 8.16196 39.3778 6.76471H38.1778ZM32.7778 13.3647C34.175 13.3647 35.2833 13.366 36.1495 13.2495C37.033 13.1307 37.754 12.8797 38.3234 12.3103L37.4748 11.4618C37.1656 11.771 36.7401 11.9593 35.9896 12.0602C35.222 12.1634 34.209 12.1647 32.7778 12.1647V13.3647ZM27.0667 29.5882C27.0667 30.0427 27.0654 30.4439 27.1086 30.7655C27.1542 31.1043 27.2588 31.4431 27.5353 31.7196L28.3838 30.8711C28.3674 30.8547 28.3256 30.8113 28.2979 30.6056C28.2679 30.3825 28.2667 30.0766 28.2667 29.5882H27.0667ZM29.6667 30.9882C29.1783 30.9882 28.8724 30.987 28.6493 30.957C28.4436 30.9293 28.4002 30.8875 28.3838 30.8711L27.5353 31.7196C27.8118 31.9961 28.1506 32.1007 28.4894 32.1463C28.811 32.1895 29.2122 32.1882 29.6667 32.1882V30.9882ZM28.2667 24.1765C28.2667 23.6881 28.2679 23.3822 28.2979 23.1591C28.3256 22.9534 28.3674 22.91 28.3838 22.8936L27.5353 22.0451C27.2588 22.3216 27.1542 22.6604 27.1086 22.9992C27.0654 23.3208 27.0667 23.722 27.0667 24.1765H28.2667ZM29.6667 21.5765C29.2122 21.5765 28.811 21.5752 28.4894 21.6184C28.1506 21.664 27.8118 21.7686 27.5353 22.0451L28.3838 22.8936C28.4002 22.8772 28.4436 22.8354 28.6493 22.8077C28.8724 22.7777 29.1783 22.7765 29.6667 22.7765V21.5765ZM39 13.3647C39.4884 13.3647 39.7943 13.366 40.0173 13.396C40.2231 13.4236 40.2665 13.4655 40.2828 13.4819L41.1314 12.6333C40.8549 12.3568 40.5161 12.2522 40.1772 12.2067C39.8556 12.1634 39.4544 12.1647 39 12.1647V13.3647ZM41.6 14.7647C41.6 14.3103 41.6013 13.9091 41.558 13.5875C41.5125 13.2486 41.4079 12.9098 41.1314 12.6333L40.2828 13.4819C40.2992 13.4982 40.3411 13.5416 40.3687 13.7474C40.3987 13.9704 40.4 14.2763 40.4 14.7647L41.6 14.7647ZM39 41.6C39.4544 41.6 39.8556 41.6013 40.1772 41.558C40.5161 41.5125 40.8549 41.4079 41.1314 41.1314L40.2828 40.2828C40.2665 40.2992 40.2231 40.3411 40.0173 40.3687C39.7943 40.3987 39.4884 40.4 39 40.4V41.6ZM40.4 39C40.4 39.4884 40.3987 39.7943 40.3687 40.0173C40.3411 40.2231 40.2992 40.2665 40.2828 40.2828L41.1314 41.1314C41.4079 40.8549 41.5125 40.5161 41.558 40.1772C41.6013 39.8556 41.6 39.4544 41.6 39H40.4ZM5 40.4C4.04023 40.4 3.38076 40.3987 2.8854 40.3321C2.40731 40.2678 2.17288 40.1528 2.01005 39.9899L1.16152 40.8385C1.58448 41.2614 2.11435 41.4393 2.72551 41.5214C3.3194 41.6013 4.07415 41.6 5 41.6V40.4ZM0.399998 37C0.399998 37.9258 0.398724 38.6806 0.478573 39.2745C0.560741 39.8857 0.738567 40.4155 1.16152 40.8385L2.01005 39.9899C1.84722 39.8271 1.73215 39.5927 1.66787 39.1146C1.60127 38.6192 1.6 37.9598 1.6 37H0.399998ZM0.399998 6.88235C0.399998 8.22318 0.398819 9.28676 0.506752 10.121C0.616745 10.9712 0.848923 11.6688 1.37723 12.2307L2.25149 11.4087C1.96543 11.1045 1.79043 10.6905 1.69683 9.96704C1.60118 9.22768 1.6 8.25566 1.6 6.88235H0.399998ZM6.88235 12.1647C5.50904 12.1647 4.53702 12.1635 3.79766 12.0679C3.07421 11.9743 2.66025 11.7993 2.35601 11.5132L1.53401 12.3875C2.09591 12.9158 2.79354 13.148 3.64369 13.2579C4.47794 13.3659 5.54153 13.3647 6.88235 13.3647V12.1647ZM1.37723 12.2307C1.42787 12.2845 1.48015 12.3368 1.53401 12.3875L2.35601 11.5132C2.3201 11.4795 2.28524 11.4446 2.25149 11.4087L1.37723 12.2307ZM37.7778 1.6C37.8979 1.6 37.9927 1.60004 38.0743 1.6021C38.1561 1.60416 38.2097 1.60801 38.2465 1.61295C38.3161 1.62231 38.2639 1.62755 38.2071 1.57071L39.0556 0.722179C38.8523 0.518898 38.6091 0.450905 38.4064 0.423653C38.2209 0.398724 37.9965 0.399998 37.7778 0.399998V1.6ZM39.3778 2C39.3778 1.78126 39.3791 1.55684 39.3541 1.37141C39.3269 1.16872 39.2589 0.925465 39.0556 0.722179L38.2071 1.57071C38.1502 1.51387 38.1555 1.46169 38.1648 1.53131C38.1698 1.5681 38.1736 1.62163 38.1757 1.70349C38.1777 1.78504 38.1778 1.87992 38.1778 2H39.3778ZM1.6 6.88235C1.6 5.50904 1.60118 4.53702 1.69683 3.79766C1.79043 3.07421 1.96543 2.66025 2.25149 2.35601L1.37723 1.53401C0.848923 2.09591 0.616745 2.79354 0.506752 3.6437C0.398819 4.47794 0.399998 5.54153 0.399998 6.88235H1.6ZM6.88235 0.399998C5.54153 0.399998 4.47794 0.398819 3.64369 0.506752C2.79354 0.616745 2.09591 0.848927 1.53401 1.37723L2.35601 2.25149C2.66025 1.96543 3.07421 1.79043 3.79766 1.69683C4.53702 1.60118 5.50904 1.6 6.88235 1.6V0.399998ZM2.25149 2.35601C2.28524 2.3201 2.3201 2.28524 2.35601 2.25149L1.53401 1.37723C1.48015 1.42787 1.42787 1.48015 1.37723 1.53401L2.25149 2.35601Z" fill="#FF2BFF"/>
</svg>
