<svg width="32" height="33" viewBox="0 0 32 33" fill="none" xmlns="http://www.w3.org/2000/svg">
<path d="M8.44069 14.9884C7.87816 14.434 7.3325 13.8965 6.78934 13.3539C4.60921 11.1746 2.4301 8.99407 0.252043 6.81227C-0.0861028 6.47412 -0.0829593 6.24973 0.255187 5.91221C2.12447 4.04126 3.99438 2.17135 5.86491 0.302485C6.26494 -0.0975401 6.45369 -0.101915 6.85496 0.302485C9.43221 2.87848 12.0078 5.45551 14.5817 8.03359C14.7136 8.16609 14.8198 8.32361 14.9629 8.49924C15.6136 7.84295 16.203 7.24417 16.7968 6.64976C18.9157 4.52879 21.0354 2.40907 23.156 0.290605C23.5391 -0.0925437 23.7254 -0.0962928 24.0979 0.27623C25.9689 2.14593 27.839 4.01646 29.7082 5.88783C30.0964 6.2766 30.0939 6.46474 29.7045 6.85414C27.061 9.4968 24.4181 12.1395 21.7759 14.7821C21.7134 14.8446 21.6509 14.9178 21.539 15.0415C21.9059 15.3909 22.2734 15.7291 22.6253 16.0766C24.9759 18.4226 27.3246 20.7702 29.6714 23.1195C30.1089 23.5571 30.1089 23.7202 29.6751 24.1508C27.8254 25.9985 25.9768 27.8465 24.1292 29.6949C23.7148 30.1093 23.5454 30.1106 23.1216 29.6874C20.5127 27.0823 17.9061 24.4752 15.3017 21.8663C15.2074 21.7713 15.1424 21.6476 15.0261 21.4851C14.5361 21.992 14.1229 22.4307 13.6979 22.8601C11.4186 25.1444 9.13719 27.4273 6.85371 29.7087C6.46056 30.1025 6.26367 30.1018 5.86677 29.7049L0.27768 24.1177C-0.0904683 23.7502 -0.0923434 23.5427 0.27768 23.1745C2.91909 20.5319 5.56114 17.8894 8.2038 15.2472C8.27318 15.1684 8.34194 15.0928 8.44069 14.9884ZM6.43367 28.8536C6.51256 28.7346 6.59944 28.6209 6.6937 28.5136C9.29677 25.9043 11.9011 23.2966 14.5067 20.6906C14.8761 20.3206 15.1055 20.3156 15.4549 20.6656C18.1121 23.3233 20.7689 25.981 23.4254 28.6386C23.4879 28.7011 23.5604 28.7586 23.5897 28.7842L28.8238 23.5627C28.7163 23.4733 28.58 23.3752 28.4638 23.2595C25.8624 20.6619 23.2626 18.0628 20.6646 15.4622C20.3064 15.104 20.3052 14.8959 20.6602 14.5402C22.7437 12.4568 24.8271 10.3733 26.9106 8.28986C27.5425 7.65857 28.18 7.03353 28.7788 6.44161L23.5766 1.21942C23.5535 1.24067 23.5072 1.28192 23.4635 1.32442C20.7966 3.98917 18.1317 6.65392 15.4686 9.31867C15.1042 9.68369 14.8855 9.68681 14.5223 9.32304C12.1584 6.95998 9.79513 4.59587 7.43248 2.23073C7.08183 1.87946 6.74494 1.51568 6.45305 1.21379L1.20587 6.44287C1.25509 6.47869 1.30206 6.51752 1.3465 6.55912C4.01333 9.22304 6.67785 11.8876 9.3401 14.5527C9.66637 14.879 9.672 15.1153 9.35698 15.4278C7.10392 17.6804 4.85005 19.932 2.59533 22.1826C2.11905 22.6576 1.62652 23.1164 1.15774 23.5696L6.43367 28.8536Z" fill="#FF2BFF"/>
<path d="M10.4407 16.9884C9.87816 16.434 9.3325 15.8965 8.78934 15.3539C6.60921 13.1746 4.4301 10.9941 2.25204 8.81227C1.9139 8.47412 1.91704 8.24973 2.25519 7.91221C4.12447 6.04126 5.99438 4.17135 7.86491 2.30248C8.26494 1.90246 8.45369 1.89808 8.85496 2.30248C11.4322 4.87848 14.0078 7.45551 16.5817 10.0336C16.7136 10.1661 16.8198 10.3236 16.9629 10.4992C17.6136 9.84295 18.203 9.24417 18.7968 8.64976C20.9157 6.52879 23.0354 4.40907 25.156 2.29061C25.5391 1.90746 25.7254 1.90371 26.0979 2.27623C27.9689 4.14593 29.839 6.01646 31.7082 7.88783C32.0964 8.2766 32.0939 8.46474 31.7045 8.85414C29.061 11.4968 26.4181 14.1395 23.7759 16.7821C23.7134 16.8446 23.6509 16.9178 23.539 17.0415C23.9059 17.3909 24.2734 17.7291 24.6253 18.0766C26.9759 20.4226 29.3246 22.7702 31.6714 25.1195C32.1089 25.5571 32.1089 25.7202 31.6751 26.1508C29.8254 27.9985 27.9768 29.8465 26.1292 31.6949C25.7148 32.1093 25.5454 32.1106 25.1216 31.6874C22.5127 29.0823 19.9061 26.4752 17.3017 23.8663C17.2074 23.7713 17.1424 23.6476 17.0261 23.4851C16.5361 23.992 16.1229 24.4307 15.6979 24.8601C13.4186 27.1444 11.1372 29.4273 8.85371 31.7087C8.46056 32.1025 8.26367 32.1018 7.86677 31.7049L2.27768 26.1177C1.90953 25.7502 1.90766 25.5427 2.27768 25.1745C4.91909 22.5319 7.56114 19.8894 10.2038 17.2472C10.2732 17.1684 10.3419 17.0928 10.4407 16.9884ZM8.43367 30.8536C8.51256 30.7346 8.59944 30.6209 8.6937 30.5136C11.2968 27.9043 13.9011 25.2966 16.5067 22.6906C16.8761 22.3206 17.1055 22.3156 17.4549 22.6656C20.1121 25.3233 22.7689 27.981 25.4254 30.6386C25.4879 30.7011 25.5604 30.7586 25.5897 30.7842L30.8238 25.5627C30.7163 25.4733 30.58 25.3752 30.4638 25.2595C27.8624 22.6619 25.2626 20.0628 22.6646 17.4622C22.3064 17.104 22.3052 16.8959 22.6602 16.5402C24.7437 14.4568 26.8271 12.3733 28.9106 10.2899C29.5425 9.65857 30.18 9.03353 30.7788 8.44161L25.5766 3.21942C25.5535 3.24067 25.5072 3.28192 25.4635 3.32442C22.7966 5.98917 20.1317 8.65392 17.4686 11.3187C17.1042 11.6837 16.8855 11.6868 16.5223 11.323C14.1584 8.95998 11.7951 6.59587 9.43248 4.23073C9.08183 3.87946 8.74494 3.51568 8.45305 3.21379L3.20587 8.44287C3.25509 8.47869 3.30206 8.51752 3.3465 8.55912C6.01333 11.223 8.67785 13.8876 11.3401 16.5527C11.6664 16.879 11.672 17.1153 11.357 17.4278C9.10392 19.6804 6.85005 21.932 4.59533 24.1826C4.11905 24.6576 3.62652 25.1164 3.15774 25.5696L8.43367 30.8536Z" fill="#0EECEC"/>
</svg>
