<svg width="30" height="30" viewBox="0 0 30 30" fill="none" xmlns="http://www.w3.org/2000/svg">
<g id="filter_none_24px">
<path id="icon/image/filter_none_24px" fill-rule="evenodd" clip-rule="evenodd" d="M26.2505 1.25049H8.75052C7.37552 1.25049 6.25052 2.37549 6.25052 3.75049V21.2505C6.25052 22.6255 7.37552 23.7505 8.75052 23.7505H26.2505C27.6255 23.7505 28.7505 22.6255 28.7505 21.2505V3.75049C28.7505 2.37549 27.6255 1.25049 26.2505 1.25049ZM2.50024 6.25099C1.81274 6.25099 1.25024 6.81349 1.25024 7.50099V26.251C1.25024 27.626 2.37524 28.751 3.75024 28.751H22.5002C23.1877 28.751 23.7502 28.1885 23.7502 27.501C23.7502 26.8135 23.1877 26.251 22.5002 26.251H5.00024C4.31274 26.251 3.75024 25.6885 3.75024 25.001V7.50099C3.75024 6.81349 3.18774 6.25099 2.50024 6.25099ZM10.0002 21.25H25.0002C25.6877 21.25 26.2502 20.6875 26.2502 20V4.99999C26.2502 4.31249 25.6877 3.74999 25.0002 3.74999H10.0002C9.31274 3.74999 8.75024 4.31249 8.75024 4.99999V20C8.75024 20.6875 9.31274 21.25 10.0002 21.25Z" fill="#FF2BFF"/>
</g>
</svg>
