<svg width="20" height="20" viewBox="0 0 20 20" fill="none" xmlns="http://www.w3.org/2000/svg">
<path d="M19.1666 2.49999H15.8333L15.8333 12.5H19.1666L19.1666 2.49999ZM0.833292 11.6667C0.833292 12.5833 1.58329 13.3333 2.49996 13.3333H7.75829L6.96663 17.1417L6.94163 17.4083C6.94163 17.75 7.08329 18.0667 7.30829 18.2917L8.19163 19.1667L13.675 13.675C13.9833 13.375 14.1666 12.9583 14.1666 12.5L14.1666 4.16666C14.1666 3.24999 13.4166 2.49999 12.5 2.49999H4.99996C4.30829 2.49999 3.71663 2.91665 3.46663 3.51665L0.949959 9.39166C0.874958 9.58332 0.833292 9.78332 0.833292 9.99999V11.5917L0.841625 11.6L0.833292 11.6667Z" fill="#0EECEC" fill-opacity="0.8"/>
</svg>
