<svg width="40" height="40" viewBox="0 0 40 40" fill="none" xmlns="http://www.w3.org/2000/svg">
<path d="M10.0382 24.2547L10.0382 24.2547C10.0366 24.2563 10.035 24.2579 10.0335 24.2595C10.024 24.2689 10.0147 24.2782 10.0054 24.2875C9.8429 24.4497 9.69907 24.5932 9.5977 24.7722C9.49634 24.9512 9.44727 25.1484 9.39183 25.3711C9.38813 25.386 9.38439 25.401 9.38061 25.4162L8.05042 30.7369C8.0482 30.7458 8.04597 30.7547 8.04373 30.7637C8.00449 30.9203 7.96258 31.0877 7.94883 31.2282C7.9337 31.3829 7.93723 31.644 8.14663 31.8534L8.49946 31.5006L8.14664 31.8534C8.35605 32.0628 8.6171 32.0663 8.77183 32.0512C8.91238 32.0375 9.07972 31.9955 9.23641 31.9563L9.2631 31.9496L14.5839 30.6194C14.599 30.6156 14.614 30.6119 14.6289 30.6082C14.8516 30.5528 15.0488 30.5037 15.2278 30.4023L14.9815 29.9672L15.2278 30.4023C15.4069 30.301 15.5504 30.1571 15.7125 29.9947C15.7234 29.9838 15.7343 29.9729 15.7453 29.9618L28.9394 16.7678L28.9627 16.7445C29.2761 16.4311 29.5462 16.1611 29.7333 15.9157C29.9339 15.6528 30.0858 15.3604 30.0858 15C30.0858 14.6396 29.9339 14.3472 29.7333 14.0843C29.5462 13.8389 29.2761 13.5689 28.9627 13.2555L28.9394 13.2322L26.7678 11.0607L26.7446 11.0374C26.4312 10.724 26.1611 10.4539 25.9158 10.2667C25.6528 10.0661 25.3604 9.91421 25 9.91421C24.6397 9.91421 24.3472 10.0661 24.0843 10.2667C23.839 10.4539 23.569 10.7239 23.2556 11.0374L23.2323 11.0607L10.0382 24.2547Z" stroke="white"/>
<path d="M20.8334 12.5001L25.8334 9.16675L30.8334 14.1667L27.5 19.1667L20.8334 12.5001Z" fill="white"/>
</svg>
