<svg width="60" height="60" viewBox="0 0 60 60" fill="none" xmlns="http://www.w3.org/2000/svg">
<path d="M30 12.5L29.5757 12.0757L30 11.6515L30.4243 12.0757L30 12.5ZM30.6 35C30.6 35.3314 30.3314 35.6 30 35.6C29.6686 35.6 29.4 35.3314 29.4 35L30.6 35ZM17.0757 24.5757L29.5757 12.0757L30.4243 12.9243L17.9243 25.4243L17.0757 24.5757ZM30.4243 12.0757L42.9243 24.5757L42.0757 25.4243L29.5757 12.9243L30.4243 12.0757ZM30.6 12.5L30.6 35L29.4 35L29.4 12.5L30.6 12.5Z" fill="#0EECEC"/>
<path d="M12.5 40L12.5 42.5C12.5 45.2614 14.7386 47.5 17.5 47.5L42.5 47.5C45.2614 47.5 47.5 45.2614 47.5 42.5V40" stroke="#0EECEC" stroke-width="1.2"/>
<rect x="12.5" y="37.5" width="35" height="10" rx="2" fill="#0EECEC" fill-opacity="0.25"/>
</svg>
