<svg width="26" height="32" viewBox="0 0 26 32" fill="none" xmlns="http://www.w3.org/2000/svg">
<path d="M2.11158 32C1.56756 31.8643 1.0601 31.6634 0.665525 31.2413C0.173111 30.7145 -0.00213076 30.0818 1.95177e-05 29.3798C1.95177e-05 27.6821 1.95177e-05 25.9845 1.95177e-05 24.2868C1.95177e-05 17.0801 1.95177e-05 9.87369 1.95177e-05 2.66768C1.95177e-05 1.81279 0.236545 1.06475 0.935387 0.519755C1.37448 0.173554 1.92108 -0.0100384 2.48145 0.00042365C7.55397 0.00042365 12.6261 0.0028983 17.6979 0.00788515C17.8814 0.0160632 18.0559 0.0896504 18.1892 0.21519C20.6449 2.70826 23.0833 5.21847 25.5454 7.70513C25.6982 7.84743 25.8179 8.02116 25.896 8.21424C25.9742 8.40731 26.009 8.61506 25.998 8.8229C25.9808 15.6549 25.9772 22.4865 25.9872 29.3178C25.9872 30.0285 25.8389 30.6749 25.3422 31.2178C24.9433 31.6538 24.4294 31.8589 23.8746 32H2.11158ZM17.2861 0.969637C17.1496 0.964294 17.0474 0.955757 16.9453 0.955757C12.176 0.955757 7.40703 0.955757 2.63842 0.955757C1.54178 0.955757 0.974104 1.52319 0.974104 2.61425V29.3937C0.974104 30.4623 1.54286 31.0425 2.61585 31.0425C9.5333 31.0425 16.45 31.0425 23.3661 31.0425C24.4412 31.0425 25.0078 30.4666 25.0078 29.3947C25.0078 22.6653 25.0078 15.9366 25.0078 9.20865V8.84638H24.5982C22.4178 8.84638 20.2374 8.84638 18.057 8.84638C17.4119 8.84638 17.2829 8.71601 17.2829 8.07805V0.969637H17.2861ZM18.2871 1.69095V7.85149H24.3219L18.2871 1.69095Z" fill="black"/>
<path d="M6.25684 23.3923C6.27404 22.7564 6.41489 22.1965 6.82989 21.7669C7.68571 20.8814 8.55907 20.0137 9.45 19.1638C9.85533 18.7769 10.3843 18.623 10.9477 18.6124C11.2702 18.606 11.4724 18.7716 11.4853 19.0484C11.4982 19.3251 11.3272 19.5388 11.009 19.5549C10.4929 19.5805 10.0994 19.8156 9.74889 20.1715C9.07478 20.8564 8.38454 21.5243 7.70612 22.2072C7.25887 22.6592 7.10405 23.1999 7.30402 23.8101C7.3819 24.0774 7.53571 24.3166 7.74702 24.4992C7.95832 24.6817 8.21815 24.7998 8.49529 24.8392C8.73746 24.8929 8.98933 24.8853 9.22775 24.8169C9.46617 24.7486 9.68347 24.6217 9.85963 24.448C10.6327 23.7 11.4068 22.952 12.1389 22.1655C12.354 21.939 12.4239 21.5831 12.555 21.2839C12.5716 21.2238 12.582 21.1622 12.5862 21.1001C12.6475 20.7859 12.8539 20.6085 13.1152 20.6427C13.3764 20.6769 13.5603 20.9024 13.5398 21.2048C13.5022 21.7573 13.3582 22.2862 12.9657 22.6891C12.1142 23.5643 11.2702 24.4502 10.3617 25.2645C9.60374 25.943 8.67377 26.0243 7.74915 25.6139C6.78797 25.1865 6.31382 24.3925 6.25684 23.3923Z" fill="black"/>
<path d="M17.3316 12.4882C18.2702 12.5245 19.0722 12.9883 19.5023 13.9565C19.9108 14.8776 19.8248 15.803 19.1367 16.5553C18.3067 17.4626 17.41 18.3121 16.5155 19.1584C16.1177 19.5357 15.5963 19.6831 15.0437 19.6927C14.7211 19.6991 14.5169 19.5346 14.4986 19.2653C14.4803 18.996 14.6545 18.7769 14.9716 18.7556C15.4569 18.7194 15.9094 18.4986 16.2349 18.139C16.9144 17.4465 17.6175 16.7743 18.296 16.0798C18.5314 15.8531 18.6877 15.5575 18.742 15.2362C18.7964 14.915 18.7459 14.5848 18.5981 14.2941C18.4594 14.0111 18.2361 13.7777 17.9587 13.6258C17.6814 13.4739 17.3636 13.411 17.0488 13.4456C16.6692 13.4772 16.3141 13.6451 16.05 13.918C15.3332 14.6304 14.6147 15.3446 13.8943 16.0605C13.6154 16.319 13.4456 16.673 13.4191 17.0512C13.4141 17.1136 13.4036 17.1754 13.3879 17.236C13.3267 17.5256 13.1192 17.6945 12.8665 17.6635C12.7383 17.649 12.6211 17.5846 12.5406 17.4845C12.46 17.3844 12.4225 17.2566 12.4364 17.1292C12.4665 16.5884 12.5923 16.0606 12.974 15.6641C13.8205 14.7836 14.6838 13.9198 15.564 13.0727C16.0145 12.6431 16.594 12.4903 17.3316 12.4882Z" fill="black"/>
<path d="M9.99436 22.6966C9.54388 22.6859 9.31916 22.3332 9.47614 22.0287C9.54446 21.912 9.63082 21.8067 9.73203 21.7167C11.6773 19.7789 13.6237 17.8436 15.5711 15.9109C15.6286 15.85 15.6896 15.7926 15.7539 15.7389C15.9689 15.5689 16.1968 15.5561 16.4086 15.7389C16.6204 15.9216 16.6119 16.177 16.428 16.411C16.3812 16.4668 16.3309 16.5196 16.2775 16.5692C14.3157 18.5197 12.3529 20.4685 10.3889 22.4155C10.267 22.5218 10.1348 22.6159 9.99436 22.6966Z" fill="black"/>
</svg>
