<svg width="12" height="12" viewBox="0 0 12 12" fill="none" xmlns="http://www.w3.org/2000/svg">
<path fill-rule="evenodd" clip-rule="evenodd" d="M5.62207 11.9103L5.98371 10.4998L6.41769 11.904C6.12837 12.0296 5.83906 12.0323 5.62207 11.9103ZM5.11519 2.34212C4.68122 1.90659 4.03026 1.49997 3.3793 1.49997C1.8604 1.49997 0.99245 2.99994 1.28177 5.05833C1.78807 8.58415 5.98314 10.4998 5.98314 10.4998C5.62149 11.9103 5.62149 11.9103 5.62149 11.9103V11.9085V11.9067L5.54917 11.9003C5.54917 11.8949 5.54917 11.8877 5.54917 11.8787C5.47684 11.8597 5.40451 11.8344 5.40451 11.8C5.25985 11.7332 5.04286 11.6347 4.82588 11.5064C4.3919 11.2498 3.81327 10.8657 3.16231 10.3552C2.00505 9.38835 0.413819 7.72845 0.0521751 5.32398C-0.0924826 3.98214 0.0521751 2.64844 0.630806 1.61382C1.28177 0.557518 2.29437 0 3.3793 0C4.46423 0 5.40451 0.709322 5.98314 1.2569C5.98314 1.26865 5.98314 1.27949 5.98314 1.29033C5.98314 1.27949 6.05547 1.26865 6.05547 1.2569C6.56177 0.709322 7.50204 0 8.65931 0C11.1185 0 12.3481 2.99632 11.9141 5.38091C11.4801 7.72393 9.96123 9.36667 8.80396 10.3389C8.22533 10.8504 7.6467 11.2362 7.21273 11.4946C6.99574 11.6248 6.77876 11.7241 6.6341 11.7919C6.56177 11.8263 6.56177 11.8525 6.48944 11.8714C6.48944 11.8805 6.48944 11.8877 6.41711 11.8931V11.8994V11.9022V11.9031C6.41711 11.9031 6.41711 11.904 5.98314 10.4998C5.98314 10.4998 10.1059 8.55614 10.7568 5.05833C11.0462 3.37493 10.1782 1.49997 8.65931 1.49997C7.93602 1.49997 7.35739 1.90659 6.85108 2.34212C6.34478 2.84 5.98314 3.37493 5.98314 3.37493C5.98314 3.37493 5.69382 2.84 5.11519 2.34212Z" fill="#FF2BFF"/>
</svg>
