<svg width="40" height="40" viewBox="0 0 40 40" fill="none" xmlns="http://www.w3.org/2000/svg">
<path d="M19.1054 5.44721L8.45536 10.7722C7.67481 11.1625 7.28454 11.3576 7.28454 11.6667C7.28454 11.9757 7.67481 12.1708 8.45536 12.5611L19.1054 17.8861C19.5443 18.1056 19.7638 18.2153 19.9998 18.2153C20.2359 18.2153 20.4554 18.1056 20.8943 17.8861L31.5443 12.5611C32.3249 12.1708 32.7151 11.9757 32.7151 11.6667C32.7151 11.3576 32.3249 11.1625 31.5443 10.7722L20.8943 5.44721C20.4554 5.22776 20.2359 5.11803 19.9998 5.11803C19.7638 5.11803 19.5443 5.22776 19.1054 5.44721Z" fill="#0EECEC" fill-opacity="0.45"/>
<path fill-rule="evenodd" clip-rule="evenodd" d="M11.6663 17.5005L18.2111 20.7729C19.0889 21.2118 19.5278 21.4313 20 21.4313C20.4721 21.4313 20.911 21.2118 21.7888 20.7729L28.3337 17.5005L31.5444 19.1059C32.325 19.4962 32.7153 19.6913 32.7153 20.0003C32.7153 20.3093 32.325 20.5045 31.5444 20.8947L20.8944 26.2198C20.4555 26.4392 20.236 26.5489 20 26.5489C19.7639 26.5489 19.5444 26.4392 19.1055 26.2198L8.45549 20.8947L8.45548 20.8947C7.67494 20.5045 7.28467 20.3093 7.28467 20.0003C7.28467 19.6913 7.67494 19.4962 8.45549 19.1059L8.45549 19.1059L11.6663 17.5005Z" fill="#0EECEC" fill-opacity="0.45"/>
<path fill-rule="evenodd" clip-rule="evenodd" d="M11.6654 25.834L18.2111 29.1068C19.089 29.5457 19.5279 29.7652 20 29.7652C20.4721 29.7652 20.911 29.5457 21.7889 29.1068L28.3345 25.834L31.5444 27.439C32.325 27.8292 32.7153 28.0244 32.7153 28.3334C32.7153 28.6424 32.325 28.8375 31.5444 29.2278L20.8944 34.5528C20.4555 34.7723 20.236 34.882 20 34.882C19.7639 34.882 19.5444 34.7723 19.1055 34.5528L8.45549 29.2278C7.67494 28.8375 7.28467 28.6424 7.28467 28.3334C7.28467 28.0244 7.67494 27.8292 8.45549 27.439L8.45549 27.439L11.6654 25.834Z" fill="#0EECEC" fill-opacity="0.45"/>
</svg>
