<svg width="20" height="20" viewBox="0 0 20 20" fill="none" xmlns="http://www.w3.org/2000/svg">
<path d="M0.833374 17.5H4.16671V7.50001H0.833374V17.5ZM19.1667 8.33334C19.1667 7.41668 18.4167 6.66668 17.5 6.66668H12.2417L13.0334 2.85834L13.0584 2.59168C13.0584 2.25001 12.9167 1.93334 12.6917 1.70834L11.8084 0.833344L6.32504 6.32501C6.01671 6.62501 5.83337 7.04168 5.83337 7.50001V15.8333C5.83337 16.75 6.58337 17.5 7.50004 17.5H15C15.6917 17.5 16.2834 17.0833 16.5334 16.4833L19.05 10.6083C19.125 10.4167 19.1667 10.2167 19.1667 10V8.40834L19.1584 8.40001L19.1667 8.33334Z" fill="#FF2BFF" fill-opacity="0.8"/>
</svg>
