<svg width="36" height="35" viewBox="0 0 36 35" fill="none" xmlns="http://www.w3.org/2000/svg">
<path d="M17.8182 30.625C16.8605 29.7908 15.7781 28.9231 14.6332 28H14.6184C10.587 24.7625 6.01815 21.0992 4.00025 16.7096C3.33729 15.3121 2.98595 13.7916 2.96974 12.25C2.96532 10.1347 3.82915 8.10685 5.36602 6.62487C6.90289 5.14288 8.98308 4.33182 11.1364 4.375C12.8895 4.37772 14.6048 4.87533 16.078 5.80854C16.7254 6.2212 17.3111 6.72037 17.8182 7.29167C18.3283 6.72261 18.9141 6.22374 19.56 5.80854C21.0326 4.87514 22.7474 4.37751 24.5001 4.375C26.6534 4.33182 28.7336 5.14288 30.2705 6.62487C31.8073 8.10685 32.6712 10.1347 32.6667 12.25C32.6516 13.7941 32.3002 15.3172 31.6362 16.7169C29.6183 21.1065 25.0509 24.7683 21.0196 28L21.0047 28.0117C19.8584 28.929 18.7775 29.7967 17.8197 30.6367L17.8182 30.625ZM11.1364 7.29167C9.75331 7.27467 8.41926 7.79456 7.42431 8.73833C6.46567 9.66316 5.92989 10.9303 5.93933 12.25C5.95627 13.3736 6.21538 14.481 6.6997 15.4992C7.65225 17.3931 8.93753 19.1072 10.4965 20.5625C11.9679 22.0208 13.6607 23.4325 15.1247 24.6196C15.5301 24.9477 15.9429 25.2787 16.3557 25.6098L16.6155 25.8183C17.012 26.1363 17.4218 26.4658 17.8182 26.7896L17.8375 26.7721L17.8465 26.7648H17.8554L17.8687 26.7546H17.8762H17.8836L17.9103 26.7327L17.9712 26.6846L17.9816 26.6758L17.9979 26.6642H18.0068L18.0202 26.6525L19.0061 25.8577L19.2645 25.6492C19.6817 25.3152 20.0945 24.9842 20.4999 24.656C21.9639 23.469 23.6582 22.0588 25.1296 20.5931C26.6888 19.1385 27.9741 17.4249 28.9264 15.5312C29.4195 14.5043 29.6823 13.3853 29.6971 12.25C29.7032 10.9343 29.1677 9.67209 28.2122 8.75C27.2191 7.80197 25.8849 7.27779 24.5001 7.29167C22.8102 7.27756 21.1947 7.97325 20.0604 9.20354L17.8182 11.741L15.5761 9.20354C14.4418 7.97325 12.8263 7.27756 11.1364 7.29167Z" fill="#0EECEC"/>
</svg>
