<svg width="25" height="25" viewBox="0 0 25 25" fill="none" xmlns="http://www.w3.org/2000/svg">
<path d="M13.5413 7.29167H11.458V11.4583H7.29134V13.5417H11.458V17.7083H13.5413V13.5417H17.708V11.4583H13.5413V7.29167ZM12.4997 2.08334C6.74447 2.08334 2.08301 6.74479 2.08301 12.5C2.08301 18.2552 6.74447 22.9167 12.4997 22.9167C18.2549 22.9167 22.9163 18.2552 22.9163 12.5C22.9163 6.74479 18.2549 2.08334 12.4997 2.08334ZM12.4997 20.8333C7.90592 20.8333 4.16634 17.0938 4.16634 12.5C4.16634 7.90625 7.90592 4.16667 12.4997 4.16667C17.0934 4.16667 20.833 7.90625 20.833 12.5C20.833 17.0938 17.0934 20.8333 12.4997 20.8333Z" fill="#FF2BFF"/>
</svg>
