<svg width="9" height="9" viewBox="0 0 9 9" fill="none" xmlns="http://www.w3.org/2000/svg">
<path d="M8.29337 4.24585C8.29351 4.12548 8.24575 4.01 8.16064 3.92488C8.07552 3.83977 7.96004 3.79201 7.83967 3.79215L4.6959 3.78893L4.6959 0.641942C4.69603 0.52157 4.64828 0.406089 4.56316 0.320973C4.47804 0.235857 4.36256 0.1881 4.24219 0.188235C3.99121 0.188236 3.78848 0.390956 3.78848 0.641943L3.78848 3.78893L0.641494 3.78893C0.390507 3.78893 0.187787 3.99165 0.187787 4.24264C0.187787 4.49363 0.390507 4.69635 0.641494 4.69635L3.78848 4.69635L3.78848 7.84333C3.78848 8.09432 3.9912 8.29704 4.24219 8.29704C4.49317 8.29704 4.69589 8.09432 4.69589 7.84333L4.6959 4.69634L7.84289 4.69634C8.08744 4.69634 8.29337 4.49041 8.29337 4.24585Z" fill="white"/>
</svg>
