<svg width="13" height="11" viewBox="0 0 13 11" fill="none" xmlns="http://www.w3.org/2000/svg">
<path d="M0.834269 6.22126L10.1531 6.22126L6.08182 9.75866C5.75646 10.0414 5.75646 10.5053 6.08182 10.788C6.23769 10.9237 6.4493 11 6.66998 11C6.89066 11 7.10227 10.9237 7.25814 10.788L12.756 6.01104C13.0813 5.72834 13.0813 5.27167 12.756 4.98897L7.25814 0.212027C6.93278 -0.0706747 6.40719 -0.0706746 6.08182 0.212027C5.75646 0.49473 5.75646 0.951402 6.08182 1.2341L10.1531 4.7715L0.834269 4.7715C0.375421 4.77151 -1.76976e-07 5.0977 -1.42122e-07 5.49638C-1.07268e-07 5.89506 0.375421 6.22126 0.834269 6.22126Z" fill="#0EECEC"/>
</svg>
