<svg width="45" height="45" viewBox="0 0 45 45" fill="none" xmlns="http://www.w3.org/2000/svg">
<g opacity="0.7">
<path d="M6.18769 42.6562C5.51269 42.6562 4.85642 42.4875 4.29392 42.15C3.03767 41.4188 2.3252 39.9562 2.3252 38.1375V16.8375C2.3252 12.8438 5.56892 9.59998 9.56267 9.59998H24.1502C28.144 9.59998 31.3877 12.8438 31.3877 16.8375V38.1375C31.3877 39.9562 30.6752 41.4 29.419 42.15C28.1627 42.8813 26.5502 42.8062 24.9565 41.925L17.5877 37.8188C17.2315 37.6125 16.4814 37.6125 16.1252 37.8188L8.75643 41.925C7.89393 42.4125 7.01269 42.6562 6.18769 42.6562ZM9.58144 12.4312C7.14394 12.4312 5.15646 14.4187 5.15646 16.8562V38.1562C5.15646 38.925 5.38146 39.525 5.73771 39.7312C6.09396 39.9375 6.73149 39.8437 7.40649 39.4687L14.7752 35.3625C15.9752 34.7062 17.7752 34.7062 18.9752 35.3625L26.3439 39.4687C27.0189 39.8437 27.6377 39.9375 28.0127 39.7312C28.369 39.525 28.594 38.925 28.594 38.1562V16.8562C28.594 14.4187 26.6065 12.4312 24.169 12.4312H9.58144Z" fill="#FF2BFF"/>
<path d="M27.5438 42.6562C26.7188 42.6562 25.8563 42.4125 24.975 41.9437L17.6063 37.8375C17.25 37.65 16.4812 37.65 16.125 37.8375L8.77499 41.9437C7.18124 42.825 5.54998 42.9 4.31248 42.1687C3.05623 41.4375 2.34375 39.975 2.34375 38.175V16.875C2.34375 12.8812 5.58747 9.63751 9.58122 9.63751H24.1688C28.1625 9.63751 31.4062 12.8812 31.4062 16.875V38.175C31.4062 39.975 30.6938 41.4375 29.4375 42.1687C28.875 42.4875 28.2375 42.6562 27.5438 42.6562ZM16.875 34.875C17.625 34.875 18.3562 35.0437 18.975 35.3812L26.3437 39.4875C27.0187 39.8625 27.6563 39.9562 28.0125 39.7312C28.3688 39.525 28.5938 38.925 28.5938 38.1562V16.8562C28.5938 14.4187 26.6063 12.4312 24.1688 12.4312H9.58122C7.14372 12.4312 5.15625 14.4187 5.15625 16.8562V38.1562C5.15625 38.925 5.38125 39.525 5.7375 39.7312C6.09375 39.9375 6.73127 39.8437 7.40627 39.4687L14.775 35.3625C15.375 35.0437 16.125 34.875 16.875 34.875Z" fill="#FF2BFF"/>
<path d="M38.7938 35.3812C37.9688 35.3812 37.1063 35.1375 36.225 34.6687L29.3063 30.8062C28.8563 30.5625 28.5938 30.0937 28.5938 29.5875V16.875C28.5938 14.4375 26.6063 12.45 24.1688 12.45H15C14.2312 12.45 13.5938 11.8125 13.5938 11.0438V9.59999C13.5938 5.60624 16.8375 2.36252 20.8312 2.36252H35.4188C39.4125 2.36252 42.6562 5.60624 42.6562 9.59999V30.9C42.6562 32.7 41.9438 34.1625 40.6875 34.8937C40.125 35.2125 39.4875 35.3812 38.7938 35.3812ZM31.4062 28.7437L37.5937 32.2125C38.2687 32.5875 38.8875 32.6812 39.2625 32.4562C39.6375 32.2312 39.8438 31.65 39.8438 30.8813V9.58122C39.8438 7.14372 37.8563 5.15625 35.4188 5.15625H20.8312C18.3937 5.15625 16.4062 7.14372 16.4062 9.58122V9.61876H24.1688C28.1625 9.61876 31.4062 12.8625 31.4062 16.8562V28.7437Z" fill="#FF2BFF"/>
</g>
</svg>
