<svg width="17" height="17" viewBox="0 0 17 17" fill="none" xmlns="http://www.w3.org/2000/svg">
<path fill-rule="evenodd" clip-rule="evenodd" d="M11.6776 10.9631H12.4653L16.6934 15.2086C17.1022 15.6172 17.1022 16.2849 16.6934 16.6935C16.2845 17.1021 15.6164 17.1021 15.2076 16.6935L10.9696 12.458V11.6707L10.7003 11.3917C9.30429 12.5876 7.39968 13.2055 5.37541 12.8666C2.60326 12.3982 0.389523 10.0861 0.0504827 7.29568C-0.468049 3.08009 3.0819 -0.467775 7.29996 0.0504531C10.0921 0.389295 12.4055 2.60173 12.8742 5.37226C13.2132 7.39534 12.595 9.29883 11.3984 10.6941L11.6776 10.9631ZM1.99512 6.47685C1.99512 8.95837 3.99944 10.9615 6.48241 10.9615C8.96538 10.9615 10.9697 8.95837 10.9697 6.47685C10.9697 3.99534 8.96538 1.99219 6.48241 1.99219C3.99944 1.99219 1.99512 3.99534 1.99512 6.47685Z" fill="#FF2BFF"/>
</svg>
