<svg width="46" height="47" viewBox="0 0 46 47" fill="none" xmlns="http://www.w3.org/2000/svg">
<path fill-rule="evenodd" clip-rule="evenodd" d="M4.89155 13.0373L5.18065 15.2538L1.90413 18.5303C-0.601445 21.0359 -0.543624 25.3339 2.11614 27.9937L5.23848 31.116L4.62172 33.583C3.85077 38.2087 8.07171 42.4297 12.6974 41.6587L15.1644 41.0419L18.2868 44.1643C20.9658 46.8433 25.2638 46.9011 27.7694 44.3956L31.0459 41.119L33.2431 41.3889C37.599 41.89 41.261 38.228 40.7599 33.8721L40.49 31.6749L43.7665 28.3984C46.4649 25.7001 46.407 21.4021 43.728 18.723L40.4322 15.4272L40.5864 13.2686C41.1453 8.81637 37.464 5.1351 33.0118 5.69404L30.8532 5.84823L27.5574 2.55243C24.8976 -0.107336 20.5996 -0.165156 17.9013 2.53316L14.6248 5.80968L12.4083 5.52057C8.05243 5.01946 4.39043 8.68146 4.89155 13.0373ZM9.18893 17.7214C9.76714 17.1432 9.92133 16.5265 9.92133 15.7555L9.42021 12.5561C9.18893 11.1684 10.5381 9.81923 11.9258 10.0505L15.318 10.3589C15.8962 10.5516 16.7057 10.2047 17.0911 9.81923L21.1386 5.77176C22.1023 4.80808 23.3936 4.94299 24.2802 5.82958L28.3662 9.9156C28.8481 10.3974 29.5034 10.6673 30.1972 10.5902L33.6087 10.1469C35.0349 10.0312 36.2684 11.2648 36.1335 12.6717L35.6902 16.0832C35.6131 16.777 35.883 17.4323 36.3841 17.9334L40.4508 22.0002C41.3374 22.8868 41.4916 24.1974 40.5279 25.1611L36.4804 29.2085C36.095 29.594 35.7288 30.3842 35.9215 30.9624L36.2492 34.3739C36.4804 35.7616 35.1313 37.1107 33.7436 36.8795L30.5249 36.3591C29.7539 36.3591 29.1565 36.5325 28.5782 37.1107L24.5308 41.1582C23.7598 41.9292 22.2565 41.9677 21.3699 41.0811L17.3802 37.0915C16.8406 36.5518 16.1467 36.2434 15.2794 36.5325L11.9258 37.0337C10.3261 37.3613 8.9191 35.9543 9.24675 34.3546L9.76714 31.0203C10.037 30.1337 9.72859 29.4398 9.18893 28.9002L5.19928 24.9105C4.31269 24.0239 4.37051 22.5399 5.14146 21.7689L9.18893 17.7214ZM20.9466 22.1536C21.9103 21.1899 23.3943 21.1321 24.2809 22.0187C25.1675 22.9053 25.1097 24.3893 24.146 25.353C23.3751 26.124 21.891 26.1818 21.0044 25.2952C20.1178 24.4086 20.1756 22.9245 20.9466 22.1536ZM17.9195 28.3802C20.56 31.0207 24.8388 31.0592 27.3444 28.5536C30.0427 25.8553 30.0041 21.5766 27.3636 18.9361C24.7039 16.2763 20.4444 16.257 17.7461 18.9553C15.2405 21.4609 15.2598 25.7204 17.9195 28.3802Z" fill="white"/>
</svg>
