<svg width="39" height="39" viewBox="0 0 39 39" fill="none" xmlns="http://www.w3.org/2000/svg">
<path d="M13 3.25L12.2929 2.54289L13 1.83579L13.7071 2.54289L13 3.25ZM14 27.625C14 28.1773 13.5523 28.625 13 28.625C12.4477 28.625 12 28.1773 12 27.625L14 27.625ZM4.16789 10.6679L12.2929 2.54289L13.7071 3.95711L5.58211 12.0821L4.16789 10.6679ZM13.7071 2.54289L21.8321 10.6679L20.4179 12.0821L12.2929 3.95711L13.7071 2.54289ZM14 3.25L14 27.625L12 27.625L12 3.25L14 3.25Z" fill="white"/>
<path d="M26 35.75L25.2929 36.4571L26 37.1642L26.7071 36.4571L26 35.75ZM27 11.375C27 10.8227 26.5523 10.375 26 10.375C25.4477 10.375 25 10.8227 25 11.375L27 11.375ZM17.1679 28.3321L25.2929 36.4571L26.7071 35.0429L18.5821 26.9179L17.1679 28.3321ZM26.7071 36.4571L34.8321 28.3321L33.4179 26.9179L25.2929 35.0429L26.7071 36.4571ZM27 35.75L27 11.375L25 11.375L25 35.75L27 35.75Z" fill="white"/>
</svg>
