<svg width="30" height="22" viewBox="0 0 30 22" fill="none" xmlns="http://www.w3.org/2000/svg">
<path d="M11.7681 14.511C12.595 13.864 13.3972 13.2328 14.201 12.6012L21.5687 6.81192C22.5515 6.04046 23.5341 5.26901 24.5165 4.49755C24.6532 4.38955 24.8743 4.27914 24.758 4.08965C24.6417 3.90016 24.3941 3.92429 24.2144 3.99854C23.792 4.16982 23.3816 4.36303 22.9855 4.57713C19.5013 6.49226 16.0199 8.41157 12.5416 10.3351C11.0845 11.1388 9.62405 11.9387 8.1697 12.7459C7.99493 12.8423 7.84994 12.8717 7.641 12.8138C5.45892 12.2087 3.27134 11.6181 1.08816 11.0139C0.826107 10.9425 0.576577 10.8398 0.346649 10.7087C-0.0635231 10.4677 -0.125268 10.0515 0.245211 9.76707C0.575995 9.51345 0.958053 9.27576 1.36437 9.13593C4.30614 8.1234 7.26335 7.1422 10.2095 6.14655C12.4903 5.37509 14.7677 4.59882 17.0491 3.82882C19.681 2.94132 22.314 2.05608 24.9482 1.17308C25.9913 0.822072 27.0338 0.469778 28.0757 0.116195C29.1232 -0.239156 29.9888 0.245407 29.9998 1.23046C30.0048 1.62583 29.9149 2.02698 29.8212 2.41704C29.2616 4.74491 28.6866 7.06988 28.1198 9.39629C27.5299 11.8167 26.9419 14.2373 26.3557 16.6581C26.0249 18.0289 25.7051 19.403 25.3429 20.768C25.2518 21.1012 25.0783 21.4129 24.8346 21.6812C24.4911 22.053 23.8423 22.094 23.2309 21.8336C22.9216 21.6952 22.6273 21.5327 22.3515 21.348C18.8787 19.1172 15.4085 16.8832 11.9412 14.646C11.891 14.6128 11.8458 14.5728 11.7681 14.511Z" fill="#191B1F"/>
<path d="M24.3852 4.25394C24.3105 4.33678 24.229 4.41477 24.1415 4.4873C19.8688 7.56733 15.5949 10.6463 11.3197 13.724C11.3135 13.7299 11.3065 13.7351 11.2988 13.7395C10.7238 13.9931 10.6411 14.3933 10.7133 14.9265C10.8864 16.1994 10.9829 17.482 11.1108 18.7578C11.161 19.2607 11.2155 19.7631 11.2629 20.2665C11.2745 20.3928 11.2629 20.5201 11.2629 20.6459C10.861 20.7101 10.5821 20.5876 10.4762 20.2602C10.087 19.0503 9.70642 17.8385 9.33447 16.6247C9.03897 15.6662 8.76276 14.7033 8.4634 13.7457C8.41158 13.5808 8.4601 13.5047 8.61061 13.4179C11.4774 11.7194 14.3442 10.018 17.211 8.31373C19.4478 6.98587 21.6858 5.65928 23.9248 4.33399C24.0439 4.26311 24.1922 4.23031 24.3267 4.17969L24.3852 4.25394Z" fill="#191B1F"/>
<path d="M11.812 20.5706C11.7712 18.7712 11.7304 16.9911 11.6885 15.1555L15.6579 17.4954C14.8612 18.3561 12.2244 20.4733 11.812 20.5706Z" fill="#191B1F"/>
</svg>
