<svg width="50" height="50" viewBox="0 0 50 50" fill="none" xmlns="http://www.w3.org/2000/svg">
<path d="M35.417 43.2292H14.5837C5.39616 43.2292 2.60449 40.4375 2.60449 31.25V30.2083C2.60449 29.3542 3.31283 28.6458 4.16699 28.6458C6.16699 28.6458 7.81283 27 7.81283 25C7.81283 23 6.16699 21.3542 4.16699 21.3542C3.31283 21.3542 2.60449 20.6458 2.60449 19.7917V18.75C2.60449 9.5625 5.39616 6.77083 14.5837 6.77083H35.417C44.6045 6.77083 47.3962 9.5625 47.3962 18.75V20.8333C47.3962 21.6875 46.6878 22.3958 45.8337 22.3958C43.8337 22.3958 42.1878 24.0417 42.1878 26.0417C42.1878 28.0417 43.8337 29.6875 45.8337 29.6875C46.6878 29.6875 47.3962 30.3958 47.3962 31.25C47.3962 40.4375 44.6045 43.2292 35.417 43.2292ZM5.72949 31.5833C5.77116 38.75 7.25033 40.1042 14.5837 40.1042H35.417C42.3753 40.1042 44.0628 38.875 44.2503 32.625C41.2712 31.9167 39.0628 29.2292 39.0628 26.0417C39.0628 22.8542 41.292 20.1667 44.2712 19.4583V18.75C44.2712 11.3125 42.8753 9.89583 35.417 9.89583H14.5837C7.25033 9.89583 5.77116 11.25 5.72949 18.4167C8.70866 19.125 10.9378 21.8125 10.9378 25C10.9378 28.1875 8.70866 30.875 5.72949 31.5833Z" fill="#0EECEC" fill-opacity="0.45"/>
<path d="M20.833 15.1042C19.9788 15.1042 19.2705 14.3958 19.2705 13.5417V8.33333C19.2705 7.47916 19.9788 6.77083 20.833 6.77083C21.6872 6.77083 22.3955 7.47916 22.3955 8.33333V13.5417C22.3955 14.3958 21.6872 15.1042 20.833 15.1042Z" fill="#0EECEC" fill-opacity="0.45"/>
<path d="M20.833 30.375C19.9788 30.375 19.2705 29.6667 19.2705 28.8125V21.1667C19.2705 20.3125 19.9788 19.6042 20.833 19.6042C21.6872 19.6042 22.3955 20.3125 22.3955 21.1667V28.8125C22.3955 29.6875 21.6872 30.375 20.833 30.375Z" fill="#0EECEC" fill-opacity="0.45"/>
<path d="M20.833 43.2292C19.9788 43.2292 19.2705 42.5208 19.2705 41.6667V36.4583C19.2705 35.6042 19.9788 34.8958 20.833 34.8958C21.6872 34.8958 22.3955 35.6042 22.3955 36.4583V41.6667C22.3955 42.5208 21.6872 43.2292 20.833 43.2292Z" fill="#0EECEC" fill-opacity="0.45"/>
</svg>
