<svg width="20" height="20" viewBox="0 0 20 20" fill="none" xmlns="http://www.w3.org/2000/svg">
<path d="M14.1667 18.006H5.83333C4.91286 18.006 4.16667 17.2731 4.16667 16.3691V5.72923H2.5V4.09232H5.83333V3.27387C5.83333 2.36983 6.57953 1.63696 7.5 1.63696H12.5C13.4205 1.63696 14.1667 2.36983 14.1667 3.27387V4.09232H17.5V5.72923H15.8333V16.3691C15.8333 17.2731 15.0871 18.006 14.1667 18.006ZM5.83333 5.72923V16.3691H14.1667V5.72923H5.83333ZM7.5 3.27387V4.09232H12.5V3.27387H7.5ZM12.5 14.7322H10.8333V7.36613H12.5V14.7322ZM9.16667 14.7322H7.5V7.36613H9.16667V14.7322Z" fill="#0EECEC"/>
</svg>
