<svg width="70" height="70" viewBox="0 0 70 70" fill="none" xmlns="http://www.w3.org/2000/svg">
<path fill-rule="evenodd" clip-rule="evenodd" d="M5.83337 35C5.83337 18.8917 18.8917 5.83334 35 5.83334C51.1084 5.83334 64.1667 18.8917 64.1667 35C64.1667 44.5218 59.604 52.9779 52.5456 58.3012C51.3791 54.8115 49.1948 51.7399 46.2621 49.4896C43.0312 47.0105 39.0725 45.6667 35 45.6667C30.9276 45.6667 26.9689 47.0105 23.738 49.4896C20.8053 51.7399 18.621 54.8115 17.4545 58.3012C10.3961 52.9779 5.83337 44.5218 5.83337 35ZM45.0446 51.0764C47.8181 53.2045 49.8412 56.1563 50.8272 59.503C46.2687 62.4536 40.8344 64.1667 35 64.1667C29.1657 64.1667 23.7314 62.4536 19.1728 59.503C20.1589 56.1563 22.182 53.2045 24.9555 51.0763C27.8371 48.8652 31.3678 47.6667 35 47.6667C38.6323 47.6667 42.163 48.8652 45.0446 51.0764ZM27.25 26.25C27.25 21.9698 30.7198 18.5 35 18.5C39.2802 18.5 42.75 21.9698 42.75 26.25C42.75 30.5302 39.2802 34 35 34C30.7198 34 27.25 30.5302 27.25 26.25ZM35 16.5C29.6153 16.5 25.25 20.8652 25.25 26.25C25.25 31.6348 29.6153 36 35 36C40.3848 36 44.75 31.6348 44.75 26.25C44.75 20.8652 40.3848 16.5 35 16.5Z" fill="#0EECEC"/>
<rect x="6.33337" y="6.33334" width="57.3333" height="57.3333" rx="28.6667" stroke="#0EECEC"/>
</svg>
