<svg width="45" height="45" viewBox="0 0 45 45" fill="none" xmlns="http://www.w3.org/2000/svg">
<g opacity="0.7">
<path d="M22.5187 3.68301C32.8716 3.69318 41.2569 11.9424 41.25 22.1105C41.2431 32.2785 32.8466 40.5168 22.4938 40.5134C12.1409 40.51 3.75 32.2662 3.75 22.0982C3.75621 11.9231 12.1587 3.67895 22.5187 3.68301ZM37.5 21.7815C37.4113 13.6765 30.6729 7.16433 22.4202 7.20769C14.1676 7.25146 7.50086 13.8344 7.50086 21.9398C7.50086 30.0453 14.1676 36.6282 22.4202 36.672C30.6729 36.7153 37.4113 30.2032 37.5 22.0982V21.7815ZM20.625 12.8906H24.375V16.5736H20.625V12.8906ZM20.625 20.2567H24.375L24.375 31.3058H20.625L20.625 20.2567Z" fill="#FF2BFF"/>
</g>
</svg>
