<svg width="44" height="44" viewBox="0 0 44 44" fill="none" xmlns="http://www.w3.org/2000/svg">
<path d="M5.5 7.3335V1.8335H9.16667V7.3335H14.6667V11.0002H9.16667V16.5002H5.5V11.0002H0V7.3335H5.5ZM11 18.3335V12.8335H16.5V7.3335H29.3333L32.6883 11.0002H38.5C40.5167 11.0002 42.1667 12.6502 42.1667 14.6668V36.6668C42.1667 38.6835 40.5167 40.3335 38.5 40.3335H9.16667C7.15 40.3335 5.5 38.6835 5.5 36.6668V18.3335H11ZM23.8333 34.8335C28.8933 34.8335 33 30.7268 33 25.6668C33 20.6068 28.8933 16.5002 23.8333 16.5002C18.7733 16.5002 14.6667 20.6068 14.6667 25.6668C14.6667 30.7268 18.7733 34.8335 23.8333 34.8335ZM17.9667 25.6668C17.9667 28.9118 20.5883 31.5335 23.8333 31.5335C27.0783 31.5335 29.7 28.9118 29.7 25.6668C29.7 22.4218 27.0783 19.8002 23.8333 19.8002C20.5883 19.8002 17.9667 22.4218 17.9667 25.6668Z" fill="#0EECEC" fill-opacity="0.5"/>
</svg>
