<svg width="40" height="36" viewBox="0 0 40 36" fill="none" xmlns="http://www.w3.org/2000/svg">
<path d="M33.3332 11.8517H28.3332V5.92578H4.99984C3.15817 5.92578 1.6665 7.25171 1.6665 8.88874V25.185H4.99984C4.99984 27.6369 7.2415 29.6295 9.99984 29.6295C12.7582 29.6295 14.9998 27.6369 14.9998 25.185H24.9998C24.9998 27.6369 27.2415 29.6295 29.9998 29.6295C32.7582 29.6295 34.9998 27.6369 34.9998 25.185H38.3332V17.7776L33.3332 11.8517ZM9.99984 27.4073C8.6165 27.4073 7.49984 26.4147 7.49984 25.185C7.49984 23.9554 8.6165 22.9628 9.99984 22.9628C11.3832 22.9628 12.4998 23.9554 12.4998 25.185C12.4998 26.4147 11.3832 27.4073 9.99984 27.4073ZM32.4998 14.0739L35.7748 17.7776H28.3332V14.0739H32.4998ZM29.9998 27.4073C28.6165 27.4073 27.4998 26.4147 27.4998 25.185C27.4998 23.9554 28.6165 22.9628 29.9998 22.9628C31.3832 22.9628 32.4998 23.9554 32.4998 25.185C32.4998 26.4147 31.3832 27.4073 29.9998 27.4073Z" fill="#0D7274"/>
</svg>
