<svg width="40" height="39" viewBox="0 0 40 39" fill="none" xmlns="http://www.w3.org/2000/svg">
<path d="M20.0002 34.1249C18.9252 33.1954 17.7102 32.2285 16.4252 31.1999H16.4085C11.8835 27.5924 6.7552 23.5104 4.4902 18.6191C3.74606 17.0619 3.35171 15.3677 3.33352 13.6499C3.32855 11.2928 4.29815 9.03323 6.02321 7.38187C7.74828 5.73052 10.0832 4.82676 12.5002 4.87487C14.4679 4.8779 16.3933 5.43238 18.0469 6.47225C18.7735 6.93207 19.4309 7.48829 20.0002 8.12487C20.5727 7.49079 21.2303 6.9349 21.9552 6.47225C23.6081 5.43218 25.533 4.87767 27.5002 4.87487C29.9172 4.82676 32.2521 5.73052 33.9772 7.38187C35.7023 9.03323 36.6719 11.2928 36.6669 13.6499C36.6499 15.3705 36.2555 17.0676 35.5102 18.6272C33.2452 23.5185 28.1185 27.5989 23.5935 31.1999L23.5769 31.2129C22.2902 32.235 21.0769 33.2019 20.0019 34.1379L20.0002 34.1249ZM12.5002 8.12487C10.9477 8.10593 9.45032 8.68524 8.33353 9.73687C7.25751 10.7674 6.65613 12.1793 6.66673 13.6499C6.68574 14.9019 6.97658 16.1359 7.5202 17.2704C8.58938 19.3808 10.0321 21.2907 11.7819 22.9124C13.4335 24.5374 15.3335 26.1104 16.9769 27.4331C17.4319 27.7987 17.8952 28.1676 18.3585 28.5365L18.6502 28.7689C19.0952 29.1231 19.5552 29.4904 20.0002 29.8511L20.0219 29.8316L20.0319 29.8235H20.0419L20.0569 29.8121H20.0652H20.0735L20.1035 29.7878L20.1719 29.7341L20.1835 29.7244L20.2019 29.7114H20.2119L20.2269 29.6984L21.3335 28.8127L21.6235 28.5804C22.0919 28.2083 22.5552 27.8394 23.0102 27.4737C24.6535 26.151 26.5552 24.5796 28.2069 22.9465C29.9569 21.3257 31.3996 19.4162 32.4685 17.3061C33.022 16.1618 33.317 14.9149 33.3336 13.6499C33.3405 12.1839 32.7394 10.7773 31.6669 9.74987C30.5522 8.69349 29.0546 8.10941 27.5002 8.12487C25.6034 8.10916 23.7901 8.88435 22.5169 10.2552L20.0002 13.0827L17.4835 10.2552C16.2103 8.88435 14.397 8.10916 12.5002 8.12487Z" fill="#0D7274"/>
</svg>
