<svg width="25" height="25" viewBox="0 0 25 25" fill="none" xmlns="http://www.w3.org/2000/svg">
<path fill-rule="evenodd" clip-rule="evenodd" d="M12.5 0C5.6 0 0 5.6 0 12.5C0 19.4 5.6 25 12.5 25C19.4 25 25 19.4 25 12.5C25 5.6 19.4 0 12.5 0ZM13.7501 6.25H11.2501V8.75H13.7501V6.25ZM13.7501 17.501C13.7501 18.1885 13.1876 18.751 12.5001 18.751C11.8126 18.751 11.2501 18.1885 11.2501 17.501V12.501C11.2501 11.8135 11.8126 11.251 12.5001 11.251C13.1876 11.251 13.7501 11.8135 13.7501 12.501V17.501ZM2.5 12.5005C2.5 18.013 6.9875 22.5005 12.5 22.5005C18.0125 22.5005 22.5 18.013 22.5 12.5005C22.5 6.98801 18.0125 2.50051 12.5 2.50051C6.9875 2.50051 2.5 6.98801 2.5 12.5005Z" fill="#0EECEC"/>
</svg>
