<svg width="40" height="40" viewBox="0 0 40 40" fill="none" xmlns="http://www.w3.org/2000/svg">
<path d="M19.1059 5.44721L8.45585 10.7722C7.6753 11.1625 7.28503 11.3576 7.28503 11.6667C7.28503 11.9757 7.6753 12.1708 8.45585 12.5611L19.1059 17.8861C19.5448 18.1056 19.7643 18.2153 20.0003 18.2153C20.2364 18.2153 20.4558 18.1056 20.8948 17.8861L31.5448 12.5611C32.3253 12.1708 32.7156 11.9757 32.7156 11.6667C32.7156 11.3576 32.3253 11.1625 31.5448 10.7722L20.8948 5.44721C20.4558 5.22776 20.2364 5.11803 20.0003 5.11803C19.7643 5.11803 19.5448 5.22776 19.1059 5.44721Z" fill="#0EECEC" fill-opacity="0.45"/>
<path fill-rule="evenodd" clip-rule="evenodd" d="M11.6668 17.5006L18.2116 20.7731C19.0894 21.212 19.5283 21.4314 20.0004 21.4314C20.4726 21.4314 20.9115 21.212 21.7893 20.7731L28.3342 17.5006L31.5449 19.106C32.3255 19.4963 32.7158 19.6914 32.7158 20.0005C32.7158 20.3095 32.3255 20.5046 31.5449 20.8949L20.8949 26.2199C20.456 26.4394 20.2365 26.5491 20.0005 26.5491C19.7644 26.5491 19.5449 26.4394 19.106 26.2199L8.45597 20.8949L8.45597 20.8949C7.67543 20.5046 7.28516 20.3095 7.28516 20.0005C7.28516 19.6914 7.67543 19.4963 8.45598 19.106L8.45598 19.106L11.6668 17.5006Z" fill="#0EECEC" fill-opacity="0.45"/>
<path fill-rule="evenodd" clip-rule="evenodd" d="M11.6659 25.834L18.2116 29.1068C19.0894 29.5457 19.5283 29.7652 20.0005 29.7652C20.4726 29.7652 20.9115 29.5457 21.7893 29.1068L28.335 25.834L31.5449 27.439C32.3255 27.8292 32.7158 28.0244 32.7158 28.3334C32.7158 28.6424 32.3255 28.8375 31.5449 29.2278L20.8949 34.5528C20.456 34.7723 20.2365 34.882 20.0005 34.882C19.7644 34.882 19.5449 34.7723 19.106 34.5528L8.45597 29.2278C7.67543 28.8375 7.28516 28.6424 7.28516 28.3334C7.28516 28.0244 7.67543 27.8292 8.45597 27.439L8.45598 27.439L11.6659 25.834Z" fill="#0EECEC" fill-opacity="0.45"/>
</svg>
