<svg width="20" height="30" viewBox="0 0 20 30" fill="none" xmlns="http://www.w3.org/2000/svg">
<path d="M19.3065 27.582C16.0324 28.6679 12.6729 29.089 9.24458 28.9903C6.29348 28.9055 3.39586 28.4676 0.563549 27.5911C0.681747 27.2847 0.799946 27.0001 0.90396 26.7102C1.31765 25.5685 1.41103 24.3948 1.17257 23.2089C0.979904 22.248 0.726069 21.2977 0.50238 20.3423C0.169653 18.9207 -0.0608255 17.4852 0.0142301 16.0196C0.134496 13.6736 1.02422 11.6823 2.80901 10.1247C4.11805 8.98207 5.65462 8.30213 7.33894 7.93158C8.6446 7.64531 9.98863 7.57702 11.3166 7.72947C13.3608 7.95936 15.2443 8.62068 16.868 9.91612C18.5269 11.2391 19.5222 12.9597 19.8723 15.0533C20.1273 16.5789 19.9985 18.0673 19.5021 19.5333C19.2092 20.3979 18.9406 21.2717 18.7695 22.1718C18.469 23.742 18.5881 25.2845 19.0497 26.8072C19.0896 26.939 19.1318 27.0699 19.175 27.2002C19.2178 27.3243 19.261 27.4484 19.3065 27.582ZM9.2301 11.9583C9.2301 12.2742 9.22567 12.5788 9.23247 12.8832C9.23483 12.986 9.20528 13.025 9.10186 13.049C8.69305 13.1407 8.30635 13.3122 7.96391 13.5537C6.78193 14.3908 6.69003 15.9847 7.21897 16.8774C7.49348 17.341 7.8859 17.6829 8.3581 17.9199C8.81375 18.1483 9.29127 18.3336 9.75993 18.5357C10.0823 18.6749 10.3976 18.8259 10.6302 19.1004C11.0072 19.5436 10.8751 20.1748 10.3545 20.4322C10.0929 20.5616 9.81252 20.6077 9.52471 20.6068C8.81287 20.6045 8.14534 20.4224 7.51535 20.0995C7.4267 20.0539 7.33805 20.0076 7.24231 19.9582C7.11141 20.5134 6.98789 21.0492 6.85817 21.5834C6.83749 21.6682 6.85197 21.7128 6.93204 21.7421C7.32328 21.8854 7.70713 22.0539 8.10693 22.1661C8.44379 22.261 8.79898 22.2905 9.16539 22.3523V23.3818H10.5084V22.2131L10.6801 22.1726C11.4957 21.9803 12.165 21.5754 12.5866 20.829C12.8942 20.2838 12.9663 19.6952 12.9055 19.0753C12.8301 18.307 12.4755 17.7068 11.8396 17.294C11.4673 17.0523 11.0566 16.8659 10.6511 16.6809C10.2079 16.4791 9.74545 16.3204 9.35303 16.0219C9.20203 15.9073 9.07615 15.7705 9.02532 15.5787C8.91777 15.1771 9.16657 14.764 9.60656 14.642C10.16 14.4883 10.712 14.5572 11.2513 14.7114C11.5559 14.8001 11.847 14.9336 12.1487 15.0489C12.1543 15.0413 12.1586 15.0328 12.1614 15.0237C12.2882 14.5137 12.4135 14.0034 12.5411 13.4937C12.5621 13.41 12.5181 13.3755 12.4525 13.3536C12.1088 13.239 11.7696 13.1057 11.4182 13.0173C11.1452 12.9485 10.8568 12.9358 10.5613 12.8965V11.9571L9.2301 11.9583Z" fill="#0D7274"/>
<path d="M4.00244 1.20829C4.41613 1.22484 4.82628 1.25646 5.23761 1.25557C6.14271 1.25321 7.02594 1.07827 7.90563 0.885613C8.97591 0.652468 10.0415 0.397161 11.1153 0.181155C11.9767 0.00769997 12.8498 -0.0661737 13.7266 0.0721177C14.554 0.202431 15.2702 0.546977 15.8562 1.17431C15.6077 1.53156 15.3609 1.88557 15.1148 2.24046C14.131 3.65883 13.1482 5.07848 12.1664 6.49941C12.1025 6.5922 12.0402 6.61554 11.9362 6.59959C11.19 6.48434 10.4386 6.42436 9.68509 6.45834C9.0814 6.48582 8.47948 6.55172 7.87785 6.61229C7.78359 6.62175 7.73956 6.6052 7.68844 6.53074C6.92488 5.42559 6.15955 4.32162 5.39245 3.21884C4.95472 2.58845 4.51729 1.95806 4.08016 1.32767C4.05031 1.28305 4.02254 1.23932 4.00244 1.20829Z" fill="#0D7274"/>
<path d="M1.19293 6.59384C1.6081 6.51672 2.0082 6.44196 2.40889 6.36809C2.80958 6.29421 3.20939 6.22182 3.62337 6.11662L2.01115 5.24284C2.27237 4.75971 2.53004 4.28219 2.79303 3.79492L4.43598 4.68436C4.60028 4.77301 4.75837 4.87732 4.93005 4.94883C5.17413 5.05048 5.33487 5.22689 5.47583 5.44142C5.71872 5.81167 5.98142 6.16863 6.2252 6.53829C6.2976 6.64792 6.33365 6.78178 6.39157 6.91652C6.11735 7.00517 5.87238 7.07461 5.63539 7.16533C5.24534 7.31308 4.86711 7.49303 4.47203 7.62896C4.21436 7.71761 3.94014 7.75927 3.67006 7.81069C2.99042 7.94012 2.30783 8.06216 1.62701 8.1907C1.52182 8.21049 1.47247 8.19867 1.45179 8.0725C1.37555 7.61241 1.28306 7.15469 1.19766 6.69609C1.19411 6.66213 1.19253 6.62799 1.19293 6.59384Z" fill="#0D7274"/>
<path d="M9.23002 11.9585H10.5597V12.8979C10.8552 12.9372 11.1428 12.9499 11.4167 13.0187C11.7674 13.1074 12.1067 13.2404 12.4509 13.355C12.5174 13.3772 12.5614 13.4114 12.5396 13.4951C12.4119 14.0048 12.2866 14.5151 12.1599 15.0251C12.1571 15.0342 12.1528 15.0427 12.1471 15.0503C11.8454 14.935 11.5544 14.8 11.2497 14.7128C10.7104 14.5586 10.1585 14.4897 9.605 14.6434C9.16501 14.7654 8.91621 15.1785 9.02377 15.5801C9.07459 15.7707 9.20106 15.9075 9.35147 16.0233C9.74389 16.3218 10.2084 16.4804 10.6496 16.6823C11.055 16.8672 11.4657 17.0537 11.8381 17.2954C12.474 17.7091 12.8286 18.3078 12.9039 19.0767C12.9648 19.6972 12.8927 20.2852 12.5851 20.8304C12.1634 21.5768 11.4941 21.9828 10.6785 22.174L10.5069 22.2145V23.382H9.16383V22.3519C8.79742 22.2902 8.44223 22.2606 8.10537 22.1658C7.70557 22.0535 7.32172 21.885 6.93049 21.7417C6.85041 21.7122 6.83593 21.6678 6.85661 21.583C6.98722 21.0494 7.11074 20.5136 7.24076 19.9578C7.3362 20.0072 7.42485 20.0536 7.51379 20.0991C8.14526 20.422 8.81397 20.6041 9.52316 20.6064C9.81097 20.6064 10.0914 20.5612 10.3529 20.4318C10.8736 20.1744 11.0056 19.5453 10.6286 19.1C10.396 18.8255 10.0808 18.6745 9.75837 18.5353C9.28971 18.3329 8.81278 18.1479 8.35654 17.9195C7.88375 17.6831 7.49193 17.3406 7.21741 16.877C6.68848 15.9843 6.77978 14.3904 7.96235 13.5533C8.30479 13.3118 8.69149 13.1403 9.1003 13.0486C9.20372 13.0246 9.23327 12.9856 9.23091 12.8828C9.22471 12.579 9.23002 12.2756 9.23002 11.9585Z" fill="#FF2BFF" fill-opacity="0.1"/>
</svg>
