<svg width="40" height="40" viewBox="0 0 40 40" fill="none" xmlns="http://www.w3.org/2000/svg">
<path d="M20 37.9167C18.8333 37.9167 17.65 37.4668 16.7667 36.5834L13.9166 33.7668C13.2166 33.0668 12.25 32.6834 11.2667 32.6834H10C6.55 32.6834 3.75 29.9001 3.75 26.4834V8.30005C3.75 4.88338 6.55 2.1001 10 2.1001H30C33.45 2.1001 36.25 4.88338 36.25 8.30005V26.4834C36.25 29.9001 33.45 32.6834 30 32.6834H28.7333C27.75 32.6834 26.7834 33.0834 26.0834 33.7668L23.2333 36.5834C22.35 37.4668 21.1667 37.9167 20 37.9167ZM10 4.58341C7.93333 4.58341 6.25 6.25003 6.25 8.28337V26.4668C6.25 28.5168 7.93333 30.1667 10 30.1667H11.2667C12.9167 30.1667 14.5166 30.8334 15.6833 31.9834L18.5333 34.8001C19.35 35.6001 20.6667 35.6001 21.4834 34.8001L24.3333 31.9834C25.5 30.8334 27.1 30.1667 28.75 30.1667H30C32.0667 30.1667 33.75 28.5001 33.75 26.4668V8.28337C33.75 6.23337 32.0667 4.58341 30 4.58341H10Z" fill="#0D8F91"/>
<path d="M20.0001 17.917C17.1667 17.917 14.8667 15.617 14.8667 12.7837C14.8667 9.95032 17.1667 7.65039 20.0001 7.65039C22.8334 7.65039 25.1334 9.95032 25.1334 12.7837C25.1334 15.617 22.8334 17.917 20.0001 17.917ZM20.0001 10.1504C18.5501 10.1504 17.3667 11.3337 17.3667 12.7837C17.3667 14.2337 18.5501 15.417 20.0001 15.417C21.4501 15.417 22.6334 14.2337 22.6334 12.7837C22.6334 11.3337 21.4501 10.1504 20.0001 10.1504Z" fill="#0D8F91"/>
<path d="M26.6668 27.3502C25.9835 27.3502 25.4168 26.7836 25.4168 26.1002C25.4168 23.8002 22.9835 21.917 20.0002 21.917C17.0168 21.917 14.5835 23.8002 14.5835 26.1002C14.5835 26.7836 14.0168 27.3502 13.3335 27.3502C12.6502 27.3502 12.0835 26.7836 12.0835 26.1002C12.0835 22.4169 15.6335 19.417 20.0002 19.417C24.3668 19.417 27.9168 22.4169 27.9168 26.1002C27.9168 26.7836 27.3502 27.3502 26.6668 27.3502Z" fill="#0D8F91"/>
</svg>
