<svg width="40" height="40" viewBox="0 0 40 40" fill="none" xmlns="http://www.w3.org/2000/svg">
<path d="M3.33325 19.9998C3.33325 16.8845 3.33325 15.3268 4.00312 14.1665C4.44197 13.4064 5.07316 12.7752 5.83325 12.3364C6.99351 11.6665 8.5512 11.6665 11.6666 11.6665H28.3333C31.4486 11.6665 33.0063 11.6665 34.1666 12.3364C34.9267 12.7752 35.5579 13.4064 35.9967 14.1665C36.6666 15.3268 36.6666 16.8845 36.6666 19.9998C36.6666 23.1152 36.6666 24.6729 35.9967 25.8332C35.5579 26.5933 34.9267 27.2245 34.1666 27.6633C33.0063 28.3332 31.4486 28.3332 28.3333 28.3332H11.6666C8.5512 28.3332 6.99351 28.3332 5.83325 27.6633C5.07316 27.2245 4.44197 26.5933 4.00312 25.8332C3.33325 24.6729 3.33325 23.1152 3.33325 19.9998Z" stroke="#0EECEC" stroke-opacity="0.45" stroke-width="2"/>
<path d="M31.6666 6.66683C31.6666 4.82588 30.1742 3.3335 28.3333 3.3335H11.6666C9.82564 3.3335 8.33325 4.82588 8.33325 6.66683" stroke="#0EECEC" stroke-opacity="0.45" stroke-width="2"/>
<path d="M31.6666 33.3335C31.6666 35.1744 30.1742 36.6668 28.3333 36.6668H11.6666C9.82564 36.6668 8.33325 35.1744 8.33325 33.3335" stroke="#0EECEC" stroke-opacity="0.45" stroke-width="2"/>
<rect x="9.16659" y="17.4998" width="8.33333" height="1.66667" rx="0.833333" stroke="#0EECEC" stroke-opacity="0.45" stroke-width="1.66667"/>
</svg>
